<svg xmlns="http://www.w3.org/2000/svg" viewBox="0 0 449.99997 127.83243"><path d="M243.59441 106.33986h-3.77111v16.26789h3.77111zm49.56063 0h-3.76851l-5.96184 16.26789h4.1435l.70423-2.05522h6.01231l.70343 2.05522h4.14686l-5.96552-16.26789zm-3.64341 10.60601l1.76867-5.14054 1.76418 5.14054zm-18.0733-10.60601l-2.20323 9.43955-2.43171-9.43955h-3.78057l-2.43476 9.43955-2.20322-9.43955h-3.76791l3.99015 16.26789h3.77677l2.52866-9.33657 2.52561 9.33657h3.77662l3.99336-16.26789zm67.877 16.26789h4.14687l-5.96552-16.26789h-3.77989l-5.96552 16.26789h4.14365l.70504-2.05522h6.00878zm-5.4736-5.66188l1.76578-5.14054 1.76418 5.14054zm-18.55833-7.00239v12.66427h-3.7559v-12.66427h-3.26397v-3.60522h10.35915v3.60522zm22.38633-76.171621c-7.55184 0-13.67279 6.1002-13.67279 13.624094 0 7.523894 6.12095 13.624892 13.67279 13.624892 7.54864 0 13.66959-6.100998 13.66959-13.624892 0-7.523894-6.12095-13.624094-13.66959-13.624094zm-11.12667 29.124092v35.459977h22.24533v-35.45838c-3.12938 2.236936-6.9718 3.557638-11.11866 3.557638-4.15007 0-7.98928-1.322298-11.12667-3.559235zm24.39246-39.282523v9.692169h7.82425v65.033884h22.24532V23.613428H367.398zm65.56467 14.587754c-17.06495 0-30.89477 13.783933-30.89477 30.78954 0 17.002573 13.82982 30.789699 30.89477 30.789699 17.06335 0 30.89478-13.787126 30.89478-30.789699 0-17.005607-13.83143-30.78954-30.89478-30.78954zm0 41.050165c-5.68992 0-10.29986-4.59539-10.29986-10.262222 0-5.666673 4.60994-10.262062 10.29986-10.262062 5.68672 0 10.29666 4.595389 10.29666 10.262062 0 5.666832-4.60994 10.262222-10.29666 10.262222zm-127.0887-41.050165c-3.00119 0-5.90544.428099-8.6533 1.224895V23.613428h-30.06588v9.692169h7.82088v29.142934l.003 6.542191c0 17.002573 13.82966 30.789699 30.89526 30.789699 17.06543 0 30.89846-13.787126 30.89846-30.789699 0-17.005607-13.83303-30.78954-30.89846-30.78954zm0 41.050165c-5.6896 0-10.29938-4.59539-10.29938-10.262222 0-5.666673 4.60978-10.262062 10.29938-10.262062 5.68559 0 10.29873 4.595389 10.29873 10.262062 0 5.666832-4.61314 10.262222-10.29873 10.262222zM151.76014 23.613428v9.692169h7.82087v37.122072l.003 3.941346c0 1.790156-1.45525 3.237962-3.24859 3.237962-1.79319 0-3.24843-1.447806-3.24843-3.237962v-4.002183H130.2943v3.712845c0 14.180894 11.53559 25.678069 25.76888 25.678069 14.22704 0 25.76583-11.497175 25.76583-25.678069V23.613428h-13.60437zm64.5257-1.426089v16.761618l16.8214-16.761618zm12.15522 45.704794l.0125 3.641949c0 3.353409-2.72575 6.068264-6.09019 6.068264-3.36428 0-6.09002-2.714855-6.09002-6.068264l.0125-3.364268V40.714842h-13.60116v-.0016h-16.46472v9.326665h7.82392v21.495768c0 15.586543 12.6811 28.222067 28.31949 28.222067 15.6448 0 28.32269-12.635524 28.32269-28.222067V40.714842l-22.245-.0016z" fill="none" stroke="#fff" stroke-width="5.20099"/><path d="M243.59377 106.33794h-3.77111v16.26805h3.77111zM293.15377 106.33794h-3.76787l-5.96184 16.26805h4.1435l.70423-2.05522h6.01183l.70423 2.05522h4.1467l-5.96504-16.26805zm-3.64277 10.60601l1.76819-5.14053 1.76514 5.14053zM271.43849 106.33954l-2.20323 9.44036-2.43171-9.44036h-3.78057l-2.43476 9.44036-2.20322-9.44036h-3.76791l3.99015 16.26789h3.77677l2.52865-9.33656 2.52562 9.33656h3.77662l3.99336-16.26789zM339.31502 122.60599h4.1467l-5.96488-16.26805H333.71627l-5.96504 16.26805h4.14366l.70407-2.05522h6.00878zm-5.47361-5.66204l1.76515-5.14053 1.76498 5.14053zM315.28324 109.94316v12.66427h-3.75557v-12.66427h-3.26413v-3.60522h10.35899v3.60522zM337.66845 33.772018c-7.55168 0-13.67311 6.099402-13.67311 13.623296 0 7.524692 6.12143 13.625691 13.67311 13.625691 7.54848 0 13.66991-6.100999 13.66991-13.625691 0-7.523894-6.12143-13.623296-13.66991-13.623296M326.54306 62.895791v35.459977h22.24501v-35.45838c-3.12954 2.236937-6.9726 3.557638-11.1193 3.557638-4.14991 0-7.98976-1.322298-11.12571-3.559235M350.93553 23.613268v9.692169h7.82392v65.033884h22.24501V23.613268h-13.60742zM416.50067 38.201502c-17.06559 0-30.89525 13.783134-30.89525 30.788741 0 17.002573 13.82966 30.789699 30.89525 30.789699 17.06239 0 30.8951-13.787126 30.8951-30.789699 0-17.005607-13.83271-30.788741-30.8951-30.788741zm0 41.050164c-5.6896 0-10.29954-4.595389-10.29954-10.26286 0-5.666833 4.60994-10.262222 10.29954-10.262222 5.6864 0 10.29618 4.595389 10.29618 10.262222 0 5.667471-4.60978 10.26286-10.29618 10.26286M289.41052 38.200225c-3.00118 0-5.90543.428098-8.65329 1.224894V23.611672h-30.06588v9.692968h7.82088v29.142934l.003 6.541392c0 17.002573 13.82966 30.789698 30.89525 30.789698 17.0656 0 30.8983-13.787125 30.8983-30.789698 0-17.005607-13.8327-30.788741-30.8983-30.788741zm0 41.050164c-5.6896 0-10.29938-4.595389-10.29938-10.262861 0-5.666832 4.60978-10.262221 10.29938-10.262221 5.6864 0 10.29938 4.595389 10.29938 10.262221 0 5.667472-4.61298 10.262861-10.29938 10.262861M151.76014 23.613268v9.692169h7.82087v37.122072l.003 3.941346c0 1.790156-1.45525 3.237962-3.24859 3.237962-1.79319 0-3.24843-1.447806-3.24843-3.237962V70.36747H130.2943v3.712047c0 14.180893 11.53559 25.678069 25.76888 25.678069 14.22704 0 25.76583-11.497176 25.76583-25.678069V23.613268h-13.60437zM216.28585 22.187339v16.761618l16.8214-16.761618zM228.44058 67.892133l.0125 3.641948c0 3.35341-2.72574 6.068265-6.09018 6.068265-3.36428 0-6.09003-2.714855-6.09003-6.068265l.0125-3.364267V40.714842H202.6842v-.0016h-16.46471v9.326665h7.82392V71.535675c0 15.586544 12.6811 28.222068 28.31949 28.222068 15.64479 0 28.32269-12.635524 28.32269-28.222068V40.714842l-22.24501-.0016z" fill="#6599d1"/><path d="M77.051543 125.34927v-8.36205c.903722-.40622 1.828434-.78434 2.79-1.14058 6.29208-2.11383 13.532427-5.08353 19.582553-11.06988 2.829254-2.80459 6.143384-6.027064 8.722194-11.816849l-2.31282-1.790157c3.19539-5.551385 3.71166-11.076263 3.71166-11.076263l-10.737455-4.302219c.497527-4.040985.203337-8.153028-.904523-12.134932l-.409879-1.453394c-.870072-3.091377-2.191525-7.795188-3.217985-12.571493h10.131132V35.18709l-7.07915.0032c1.298859-3.137524 3.52403-7.431919 3.52403-7.431919l-9.924749-12.350977-1.871536 1.427527c-3.117038 2.372663-6.515768 4.389723-10.106137 6.024672l.0046-.0032C77.70562 11.482488 68.036923 2.6331025 56.289986 2.6331025c-11.746936 0-21.41339 8.8493855-22.663537 20.2232895l.003.0032c-3.591928-1.634955-6.989055-3.652015-10.103689-6.024678l-1.875543-1.427527-9.919944 12.350977s2.224372 4.294395 3.523872 7.431919l-7.0821953-.0032.0032 14.444363H18.306288c-1.028865 4.776305-2.350317 9.480116-3.218787 12.571493l-.409879 1.453394c-1.10786 3.981904-1.40205 8.093947-.906125 12.134932L3.033236 80.093491s.5170761 5.524878 3.7140706 11.076263l-2.3136229 1.790157c2.5780095 5.789785 5.8929363 9.012259 8.7229943 11.816849 6.048684 5.98635 13.28807 8.95605 19.582553 11.06988.960765.35624 1.885477.73436 2.789199 1.14058v8.36205z" fill="#161413"/><path d="M16.223722 37.593126l-5.641849.0032.0016 9.635323h8.150958c.485831-1.314633-.874719-5.475697-2.510711-9.638517M96.353045 37.593126l5.642655.0032-.003 9.635323h-8.147111c-.488234-1.314633.873117-5.475697 2.507506-9.638517M56.290307 30.245996c-12.879793 0-24.747866-4.29695-34.253124-11.523682l-6.83896 8.49458c10.994957 9.543988 25.36669 15.324671 41.092084 15.324671 15.720586 0 30.088474-5.77749 41.084232-15.31525l-6.842004-8.496177c-9.503656 7.220505-21.368685 11.515858-34.242228 11.515858" fill="#659ed0"/><path d="M72.715924 13.604616c.111844 1.312238.12979 3.68091.05945 4.572875.71112.58618 2.395663 2.157257 3.55672 3.508457-.264386-1.970274-1.523347-5.601205-3.616167-8.081332M39.854916 13.604616c-.110402 1.312238-.126746 3.68091-.0564 4.572875-.712722.58618-2.396464 2.157257-3.559925 3.508457.265989-1.970274 1.523347-5.601205 3.616328-8.081332" fill="#659ed0"/><path d="M70.881241 11.356502c-1.48425-1.7871225-4.834429-3.7433446-6.987657-4.653193-2.229019.6019882-4.529984 1.5413771-6.621362 2.5839185.0016.4116513-.07819 2.7732975-.0556 4.1158745 2.962251 1.7488 6.010388 3.98414 8.410858 6.483109 1.840932-.50139 3.932951-1.083898 5.564296-2.112228.152543-2.035742-.02035-4.365452-.310534-6.417481M41.691521 11.356502c1.483289-1.7871225 4.834269-3.7433446 6.9891-4.653193 2.229019.6019882 4.526939 1.5413771 6.619759 2.5839185-.003.4116513.07819 2.7732975.0556 4.1158745-2.962091 1.7488-6.008786 3.98414-8.4123 6.483109-1.83949-.50139-3.931509-1.083898-5.562854-2.112228-.152543-2.035742.02195-4.365452.310694-6.417481" fill="#feca00"/><path d="M56.290146 5.2374598c-1.677492-.0016-3.409625.1980014-4.680283.7148809 1.533442.541949 3.169434 1.1835375 4.680283 1.9102346 1.512452-.7266971 3.145239-1.3682856 4.680284-1.9102346-1.2721-.5168795-3.002791-.7164777-4.680284-.7148809" fill="#659ed0"/><path d="M72.030442 19.772999c-.363732.156645-4.742775 1.980334-6.20283 2.385757-.179142 1.408206-.729066 3.673885-1.22435 5.053986 3.950256-.603584 7.794116-1.637343 11.482389-3.085309-1.050816-1.678541-2.79705-3.368898-4.055209-4.354434M46.751399 22.158756c-1.460054-.405423-5.837495-2.229112-6.202829-2.385757-1.259602.985536-3.004393 2.676692-4.056812 4.354434 3.689875 1.448764 7.533736 2.481725 11.482549 3.085309-.493681-1.379303-1.042163-3.64578-1.222908-5.053986" fill="#feca00"/><path d="M62.446509 27.496332c1.129812-2.241568 1.51854-5.138935 1.807282-6.318481-1.382501-1.79798-5.720043-4.909796-7.964766-6.235128-2.245523 1.325332-6.583065 4.437148-7.967169 6.235128.296594 1.21707.787872 4.072123 1.698644 6.306026 2.06558.236165 4.157599.358638 6.268525.358638 2.073272 0 4.128757-.117683 6.157484-.346183" fill="#659ed0"/><path d="M56.289026 110.54531c-7.338891-5.95601-15.081412-9.18152-20.535467-10.811835-13.436126-4.007613-23.08223-19.888125-18.752379-35.435707 1.788535-6.419237 6.15508-21.088907 5.066768-28.678269 17.304983 9.398201 31.077441 8.935133 34.221078 8.999005 3.142034-.06387 16.916094.399196 34.219635-8.999005-1.084466 7.589362 3.277432 22.259032 5.06821 28.678269 4.331453 15.547582-5.314651 31.428094-18.752379 35.435707-5.455657 1.630315-13.198178 4.855825-20.535466 10.811835" fill="#fff"/><path d="M56.289827 73.640082c2.762599 3.921865 12.407261 17.799369 17.085942 25.24071 1.081261-1.381699 1.650093-3.254409.880968-5.526475-.03044-.14419.08845-.220676.242595-.08814 1.654739 1.381699 4.461884 2.510626 6.684654 1.616426-7.450734-8.163247-14.661277-16.508208-21.892811-25.283503.546078-.669851 1.331547-1.588961 2.023919-2.445158 2.848806.566859 6.032341.906815 8.632943-.704022 4.408045-2.735135 5.613007-6.35361 6.669112-10.1538.05095-.185547.154145-.504425.345945-.479515l5.483698 1.419862c.23234.0717.188596-.03353.153345-.152014L81.633924 52.719c-.459232-2.099773-1.171313-4.050406-3.23513-5.159214-3.625622-1.949196-7.932719-1.796384-11.88618-1.593592-.04775 0-.08925.05461-.07355.09437.557776 1.206851 1.646888 2.171309 2.814996 2.562681-2.02472 3.182713-12.964235 17.253588-12.964235 17.253588S45.350469 51.805958 43.323986 48.623245c1.169711-.391372 2.257221-1.35583 2.814996-2.562681.0157-.03976-.0258-.09437-.07355-.09437-3.951859-.202792-8.258956-.355604-11.88602 1.593592-2.062375 1.108808-2.773655 3.059441-3.233688 5.159214l-.967815 4.365453c-.03365.118481-.07659.223709.154947.152014l5.483698-1.419862c.1918-.02491.294991.293968.344343.479515 1.057707 3.80019 2.262669 7.418665 6.670714 10.1538 2.599 1.610837 5.782695 1.270881 8.633744.704022.691571.856197 1.47704 1.775307 2.023278 2.445158-7.230893 8.775295-14.441436 17.120256-21.892971 25.283503 2.22277.8942 5.031517-.234727 6.684013-1.616426.156389-.132533.273841-.05605.241633.08814-.767522 2.272066-.19869 4.144776.880969 5.526475 4.680283-7.441341 14.324945-21.318845 17.087545-25.24071" fill="#161413"/><path d="M76.414131 49.377404c1.200155 0 2.172617.966055 2.172617 2.162048 0 .309616-.06714.605022-.18459.870088-.0079.09437.0439.118641.17065.153611l1.866729.644782.417731 2.25019-2.797851-.723503-.510827-1.138349c-.0274-.08958-.03365-.155207-.09934-.152014-.30749.164469-.660326.258839-1.035114.258839-1.198712 0-2.169572-.967652-2.169572-2.163644 0-1.195993.97086-2.162048 2.169572-2.162048M36.16472 49.377404c-1.198552 0-2.171014.966055-2.171014 2.162048 0 .309616.0673.605022.18459.870088.0079.09437-.04374.118641-.170489.153611l-1.86689.644782-.417731 2.25019 2.797851-.723503.510827-1.138349c.029-.08958.03205-.155207.09934-.152014.30749.164469.660326.258839 1.033511.258839 1.198713 0 2.172777-.967652 2.172777-2.163644 0-1.195993-.974064-2.162048-2.172777-2.162048" fill="#659ed0"/><path d="M53.218616 89.033574c.484388-1.568043.876321-2.343762 1.868332-3.027505.299638-.205826.796524-.598795 1.658745-.755599.614979-.109859 1.582794-.003 2.031931.219079-1.125165.862424-1.304307 2.206598-.92327 3.242752.894268-.552009 1.956781-.981544 3.026986-.902024 1.587602.120078 2.810349.994797 3.492627 2.240769-1.2721-.110657-2.657806.44199-2.962091 1.726924 1.294052.254208 2.593552.976274 3.229682 2.108236.559378.996554.817676 2.212825.421737 3.428298-.743327-.916874-1.879228-1.571077-3.291533-.955037.418532.584743.639175 1.054038.756626 1.651396.198691.999428.238589 1.843808-.201895 2.803637-.38344.83975-1.03976 1.79175-1.923132 2.10983.279289-1.1227-.405232-2.80603-1.646888-3.092972-.708075 3.390772-3.329989 4.178312-5.595702 3.804822 1.179805-1.13212 1.585038-2.28835.910612-3.42511-1.926177 1.69739-5.355351 1.05883-6.549416-1.29978 1.394358.150577 2.711805-.633924 2.923154-1.677104-1.337957-.232332-2.651557-1.1524-3.284483-2.303842-.466442-.852205-.750377-2.134903-.220002-3.289538.812228 1.305212 2.088334 1.288765 3.244585.91384-1.42224-2.248593-.993613-5.184922 1.301262-6.430894-.05801 1.199984.429428 2.243963 1.732133 2.909822" fill="#161413"/><path d="M56.124945 87.297869c-.402188.229937-.974064.648614-1.160256 1.069687-.488234 1.104816-.431191 1.989754-.33489 2.396775-1.334752.194808-2.762599-.407021-3.643728-1.363655-.214233 1.314474.421737 2.519887 1.36071 3.367301-.866868 1.044777-1.644645 1.526687-3.64517 1.635907.672824.786577 1.550587 1.567884 3.524674 1.492196.02884 1.607005-.544637 2.72268-1.488096 3.650572 1.775236.229937 2.686648-.502988 3.561367-1.497785.395939.342191 1.208006 1.288765 1.397403 1.744169.272238.655644.236987 1.479744.227693 1.970274.809023-.61061 1.715789-1.51886 1.451242-3.586541 1.695439.03194 2.559262.338359 3.750124 1.432157.333287-1.625527-.588381-2.594776-1.481046-3.375125.644623-1.186731 2.163323-1.66944 3.626262-1.677104-.830013-1.419064-1.999724-1.563253-3.557521-1.422257-.148698-1.369084.375589-2.834774 1.435699-3.775121-1.55219-.08112-2.683604.438957-3.437026 1.515669-.928718-.785938-1.677492-1.815864-1.587441-3.577119" fill="#feca00"/><path d="M20.642984 79.578687c2.409763 1.07288 5.435307 1.24198 7.835777-.382111 2.654602-1.793988 3.475322-4.909636 2.44806-7.842772-1.013963-2.894972-4.010504-4.413834-6.971954-4.607046 1.277708-1.277268 3.544222-1.850195 5.467354-1.82305 5.927547.08591 8.886433 3.448578 9.942698 7.778901.682277 2.804594.139243 5.632502-1.541294 8.009636-1.341802 1.896982-2.9137 3.190538-5.166114 3.911007-1.977131.419476-4.033257.61125-6.383574-.121675-2.498212-.781307-4.526939-2.510626-5.630953-4.92289" fill="#161413"/><path d="M25.312212 81.98201c1.946526 1.528124 4.48624 1.552235 6.723912.906655 3.188181-.917673 5.455657-3.758834 5.769395-7.074719.15719-1.641974-.0524-3.309018-.925673-4.767043-1.038158-1.73395-3.142836-4.373117-7.460829-4.205614 3.137387 2.198774 4.43849 6.150978 3.264133 9.684504-1.036716 3.126507-4.079405 5.379731-7.370938 5.456217" fill="#feca00"/><path d="M82.624973 80.682067c2.03177.831925 4.307097 1.700417 6.349924 2.44899-.254292-2.873895-.384242-4.540939-.623632-6.928293 1.395801-1.601416 3.536371-4.199386 4.350041-5.23091-2.136724-.319517-4.359494-.788972-6.500064-1.170284-1.355903-2.024724-2.672708-3.6263-3.964357-5.76248-1.451402 2.613459-2.677355 4.246811-3.701572 5.9014-2.125668.458437-4.327448 1.010446-6.453917 1.400222.851165 1.002621 3.082587 3.522668 4.537835 5.073466-.155748 2.395179-.222886 4.068291-.377832 6.946816 2.017029-.820109 4.382087-1.773709 6.383574-2.678927" fill="#161413"/><path d="M82.610711 78.798338l4.398592 1.769079-.56098-4.721695s2.304169-2.770263 2.962892-3.701189c-1.747035-.314887-3.09124-.643186-4.584784-.94881-.96477-1.374673-1.720596-2.730504-2.492765-3.967853-.727624 1.264654-1.459894 2.64779-2.375313 4.054398-1.481846.361034-2.813554.742186-4.548891 1.114078.693975.906016 3.094445 3.592767 3.094445 3.592767l-.392735 4.739739z" fill="#feca00"/><path d="M5.7411955 81.597184c.5688317 3.277083 1.5781475 5.641763 2.8776476 7.980894 2.2306219-1.56485 5.5316079-3.853203 7.4398379-5.253425-.845716-2.005403-1.480244-4.066853-1.900538-6.155608zM17.604782 87.505291c-.154145-.277681-.302682-.562229-.448175-.83975-2.884698 2.048197-7.7527761 5.474899-9.7041093 6.995198 1.9388349 3.996755 4.6208363 6.655401 7.4045863 9.408421 5.133266 5.08273 11.182752 7.99335 18.696137 10.51483 4.186602 1.54378 7.362285 3.3689 10.318928 5.42109 0 0 4.720182-8.16788 5.920337-10.19276-5.551798-3.57169-10.878306-5.62532-14.730018-6.77468-7.1676-2.140175-13.530023-7.43336-17.457686-14.532349M106.83862 81.597184c-.56964 3.277083-1.57735 5.641763-2.87925 7.980894-2.22822-1.56485-5.530009-3.853203-7.43904-5.253425.84812-2.005403 1.480405-4.066853 1.902782-6.155608zM94.975511 87.505291c.153344-.277681.298837-.562229.447535-.83975 2.88614 2.048197 7.755824 5.474899 9.705554 6.995198-1.94044 3.996755-4.62244 6.655401-7.40459 9.408421-5.13647 5.08273-11.186757 7.99335-18.69838 10.51483-4.186602 1.54378-7.363887 3.3689-10.320691 5.42109 0 0-4.718579-8.16788-5.918734-10.19276 5.551798-3.57169 10.878466-5.62532 14.728576-6.77468 7.169042-2.140175 13.533067-7.43336 17.46073-14.532349M56.288865 113.64323l-1.524148-1.23272c-.792519-.64318-1.585839-1.2522-2.380761-1.82672l-.23234.32271c-2.175822 3.29257-3.879112 6.75281-5.834291 10.17328-1.298058.64957-2.819803 1.31224-3.497434 1.76908 0 0-.213592.096.08765.096h26.76105c.302843 0 .08845-.096.08845-.096-.678432-.45684-2.196972-1.11951-3.498075-1.76908-1.955179-3.42047-3.657027-6.88071-5.832848-10.17328l-.233942-.32271c-.79332.57452-1.589685 1.18354-2.380762 1.82672z" fill="#659ed0"/><path d="M40.939862 30.108513l1.618847.428098.06025.01709-.0141.06243-2.013825 8.044765-.0165.06227-.06105-.01549-1.613239-.40239-.06425-.01629.0149-.06403 2.01078-8.070474.0157-.06148zM45.927796 31.338038l-.05785-.01389-1.72364-.38211-.06265-.01709-.0109.06387-1.679896 8.085324-.0109.06387.06265.01325 3.800757.780509.06425.01629.0125-.06387.388088-1.857222.0125-.06387-.06265-.01565-1.980175-.453806 1.235406-6.094771zM38.903124 31.711527c-.539829 1.322457-1.100008 1.468244-1.475597 1.502575.223046.340594.721374 1.160863.143249 2.440367-.644783 1.424493-2.036578 1.77834-3.92606.996395l-1.629743-.675281-.05784-.02571.02419-.05924 3.225837-7.870876.02179-.05844.05961.02188 1.631185.675919c1.834683.759432 2.501418 1.787761 1.98338 3.052416zm-3.156135.01485c.767523.317281 1.044408.45684 1.279952-.118482.237147-.574683-.276885-.758633-.828572-.98857zm.238589 2.90583c.293389-.721907-.255093-.949608-.926314-1.226331l-.570434 1.389363c.593187.247981 1.192463.577717 1.496748-.163032M51.88082 34.07413c-.439844-.08255-.894428.01485-1.287163.283111-.495284.336762-.848921.892603-.972461 1.52972-.226091 1.199026.416288 2.337375 1.432494 2.532342.432793.08575.892826-.01325 1.287803-.28295.493842-.329097.84812-.888931.966373-1.528283.230737-1.199027-.413084-2.335938-1.427046-2.53394zm3.28288 2.893376c-.248844 1.299783-.963169 2.431904-1.963031 3.102395-.787872.534923-1.70329.73995-2.57176.566859-2.036578-.395365-3.319734-2.690744-2.860503-5.109235.247242-1.299784.961566-2.428711 1.961589-3.10479.790115-.533327 1.70329-.731328 2.5716-.564464 2.03818.3976 3.322137 2.688348 2.862105 5.109235M60.98357 40.42295l-.629881-8.253625-.0046-.0578.06409-.0077 1.738542-.14435.06409-.0062.0048.06547.625073 8.255222.0046.06243-.06409.0062-1.735338.141156-.0657.0062zM72.701823 38.415152l.145493-8.646754v-.08096l-.0798.01709-1.718192.380514-.04919.0093-.0016.04758-.137642 4.222061-1.740144-3.803384-.02259-.04758-.04935.01102-1.745593.381312-.05079.01325v.04902l-.0087 4.19779-1.865928-3.782147-.02275-.04838-.04999.0094-1.72364.37732-.079.01868.03365.07569 3.703015 7.798382.02275.04279.04919-.0078 1.604746-.35241.04919-.01325.0016-.05221.118893-4.30701 1.88724 3.868852.0242.04519.04775-.01166 1.605548-.352411.0516-.01022zM81.76772 35.603531l-.083.0305-1.895732.694602-.04374.01725-.0298-.03816-.755024-.97388-2.302567.842784.0548 1.232718.0016.04439-.04391.01645-1.893328.693164-.08685.03194-.0016-.09118-.08989-9.031899-.0016-.04439.04535-.01565 1.291008-.473287.04374-.01549.03061.03816 5.702097 6.973482zm-5.244469-1.352637l1.320812-.484145-1.41535-1.848758zM85.16773 33.859682l-2.8863-5.792978 1.240854-.622906.0572-.02731-.0266-.05924-.881769-1.762053-.029-.05621-.05704.0273-4.166252 2.098176-.06105.03034.03205.05701.876321 1.761255.0274.06084.05785-.0305 1.240053-.623705 2.887101 5.792979.0274.05541.05945-.0273 1.574943-.79456.0548-.02874zM93.345287 28.725537l-.07515.04998-1.686786 1.123498-.03765.02731-.0375-.0289-.95772-.771088-2.048275 1.360462.339536 1.1821.0149.04758-.0383.02571-1.681338 1.121103-.07355.05078-.02435-.08814-2.191365-8.749587-.0133-.04679.0391-.02571 1.146957-.76486.03669-.02491.03846.02491 7.177695 5.432744zm-5.421206-.07489l1.171152-.781946-1.804078-1.461059zM22.370631 28.081234c-.140846.216684-.0814.507618.136039.651808.104152.06866.227693.09197.34899.06706.120496-.02571.224489-.0982.293389-.201993l.0133-.02028.02195-.0062-.03525.02651 3.363478-5.144205.03525-.05461.0548.03657 1.473995.969249.054.03816-.03525.05142-3.457376 5.290151c-.345785.525502-.874719.884938-1.490499 1.014438-.611775.126944-1.243258.0062-1.772031-.342351-1.08751-.716478-1.395801-2.18073-.685482-3.270058l.01875.08655-.0524-.03577.03365-.05078.299638-.45684.03525-.05222.0524.03353 1.4772.972282.0532.03657-.03669.05301zM29.721379 31.849648l1.873139-3.67085.029-.05924.05945.0273 1.544338.796796.0564.0297-.029.05621-1.991872 3.913881-.0032-.06227.01955.02874-.01634.03353c-.339697.669053-.91622 1.16262-1.622693 1.389363-.69093.224668-1.427848.162234-2.070227-.167503-1.345006-.693164-1.869934-2.361645-1.179965-3.726897l1.996679-3.914041.029-.05764.0564.03034 1.544338.795359.05945.03194-.02884.05764-1.868332 3.67069c-.221444.432729-.0548.966056.373186 1.183697.203337.103632.437279.123911.655518.05365.223848-.07313.406995-.22834.514032-.440393l.0141-.02571.0274-.0078zM33.8801 27.062645l-3.041247.504424-.125143.01948.05785-.110657.83482-1.639739.029-.05924.05704.0289 2.207227 1.138348.172893.08335zM24.800744 108.50909l.05015.0259 2.059972 1.14457.0673.0398.03685-.0733 4.129398-7.46002.0399-.0671-.07034-.0367-1.379457-.75704-.0673-.0335-.03669.0671-2.682803 4.83491 1.088312-5.80096-.0532-.0303-2.055325-1.14298-.0689-.03816-.03685.0685-4.129398 7.46306-.0383.0656.0673.0412 1.383944.76342.0657.035.0399-.0639 2.678156-4.8488zM37.138945 109.52672l-1.833081-.56686-.05079-.0125-.03221.0428c-.506981.64334-1.274504.93252-1.950532.73452-.414526-.12008-.76592-.41165-.986563-.82107-.28089-.50123-.334889-1.14298-.13684-1.7496.34194-1.14841 1.40205-1.8478 2.373711-1.56325.618184.18171 1.079659.73452 1.208006 1.4494l.0079.05.04454.014 1.881792.56686.09069.0271.0117-.0896c.1503-1.98976-.911412-3.76043-2.562306-4.24538-2.025682-.58937-4.235153.83656-4.961174 3.203-.384082 1.26609-.267592 2.58375.293389 3.64178.452181.87712 1.186054 1.48533 2.054524 1.73795 1.712744.49979 3.651579-.45221 4.593436-2.31247l.0423-.0781zM18.188515 103.9442l1.3809 1.06346.05159.0382.0399-.0492 5.120768-6.523508.0391-.04918-.0516-.03657-1.377694-1.066653-.05176-.03976-.0399.05221-5.120767 6.522871-.04214.0498zM39.374854 112.2478l.525729-1.07448 1.992673.96446.931122-1.91167-1.989629-.96606.483426-.98473 2.603808 1.26768.932723-1.91486-4.324403-2.09658-3.811012 7.79375 4.318795 2.10201.93737-1.91024zM18.846277 98.992886c.08845-.544185.0062-1.128928-.254933-1.734109-.30124-.696199.04535-1.044618.279289-1.191202l-.0032-.0048c.0846-.05142.182347-.08495.289543-.07473.120497.0093.238589.0669.317585.162073.166644.201994.139243.495962-.06105.661229l-.07499.06387-.05015.04215.0439.04599 1.122601 1.360462.04695.04615.04775-.03353.209746-.177083.04855-.05142h-.0016c.94362-.845977 1.06716-2.292984.254292-3.266863-.400586-.49197-.97102-.793763-1.595293-.849011-.565787-.04838-1.104815.109858-1.5594.434166-.484228.27289-1.154007.925497-1.320651 1.874466h-.0016c-.08605.544983-.003 1.127331.258297 1.730756.301241.694762-.04615 1.045575-.281691 1.191362l.0046.0048c-.08524.05445-.182987.08798-.290184.07633-.122098-.01086-.240191-.06866-.317745-.164469-.165041-.202792-.140845-.494365.05945-.664263l.07595-.0586.04775-.042-.0399-.04758-1.121961-1.360621-.0431-.04742-.04695.03657-.214394.17389-.04454.04599.0016.0016c-.952273.851406-1.07341 2.304641-.255093 3.287941.400585.48878.966212.78738 1.591446.84199.562423.0506 1.105457-.10763 1.563887-.43353.477338-.27289 1.150162-.925499 1.315203-1.880536M68.690839 107.36148c.114888.38993.09934.70721-.04631.96765-.153985.27592-.448976.51927-.87536.7251l-.316943.15425.692372 1.42306 1.363754-.66746 2.574805 5.2456 1.775236-.86386-3.842258-7.8498-1.3817.67368zM80.461489 105.08303c-.226891-.43832-.496886-.81021-.801171-1.10179-.313739-.2978-.680836-.49739-1.090715-.59416-.412283-.0942-.891223-.039-1.419996.16223-.860779.33054-1.403653.83895-1.605548 1.51567-.197088.66283-.113446 1.47368.248844 2.41786.142288.36406.309092.6946.494483.97531.190839.29094.410681.53173.654076.71265.249485.18331.530376.29476.836263.33995.605686.0765 1.405255-.23616 1.802636-.69156.0705-.0803.12995-.16607.182347-.25262.0838.21908.152543.43114.210547.62914.0657.2269.09935.4249.10239.60199.0032.1552-.02259.28454-.0806.39137-.0524.099-.153344.17548-.299638.22993-.251087.096-.358284.0141-.393535-.0147-.123541-.10139-.233942-.27289-.327038-.51544l-1.793182.68997c.161996.39617.362289.71824.591424.94817.233942.23473.490638.3976.762876.48878.265989.0913.550725.11625.842672.0749.272238-.0382.541432-.10683.810465-.21205.620427-.23617 1.065718-.55441 1.32706-.93875.261182-.38978.392735-.84039.392735-1.33556 0-.47089-.09005-.99415-.264547-1.54377-.165041-.51225-.360688-1.06186-.573479-1.61706-.182987-.47632-.388087-.93476-.609371-1.36046zm-1.483449 2.10584c-.0165.11465-.0689.28534-.354438.396-.27384.10379-.425582.0141-.517236-.0655-.120496-.1006-.310534-.35001-.541432-.94881-.08204-.20902-.147736-.40542-.200293-.59017-.04839-.17006-.07114-.31968-.07114-.45381 0-.11225.0258-.20582.07595-.28614.04919-.0795.143891-.14036.276885-.19417.125143-.0452.233942-.0576.325436-.0343.0931.0243.1777.0773.254292.1568.0931.0974.178501.22212.261342.38036.08845.17085.171451.36422.25349.57308.227693.6004.254292.90842.237147 1.06666M88.627509 100.96619c-.276244-.40925-.591585-.74617-.927916-.994794-.349792-.258839-.740283-.414046-1.158815-.458437-.421736-.04918-.891063.06387-1.389552.330535-.815272.432726-1.289405 1.004216-1.408299 1.700416-.115048.67768.0657 1.47607.543034 2.37187.18459.34618.38953.65564.609531.90984.229136.26986.475576.48191.740123.63233.267591.15281.559378.23154.86847.23313.613376.005 1.365196-.40079 1.706334-.89899.05945-.0928.110402-.18714.150941-.27912.108799.21062.206542.41022.286499.6004.0931.21668.150941.41324.17754.58554.02115.15824.01009.28454-.03525.40223-.0383.10059-.127546.18874-.269033.26522-.238749.12471-.353798.053-.393696.0303-.136039-.0827-.264386-.24095-.389529-.47249l-1.692395.90203c.206542.37508.443689.66905.701826.87328.25974.198.53358.33069.817676.38514.27384.0608.559378.0476.844114-.0257.265989-.0701.525889-.17693.780021-.30786.586938-.30339.990568-.67449 1.198712-1.09237.213593-.41867.288742-.8811.229295-1.37147-.0564-.47489-.212951-.97931-.449937-1.50402-.23234-.4966-.49208-1.01747-.773772-1.54776-.240992-.45221-.496886-.87153-.76592-1.26929zm-1.218261 2.26728c0 .11625-.03045.29716-.299638.43592-.262945.14036-.424781.0671-.522684-.006-.132995-.0795-.353637-.31185-.654878-.87487-.105594-.19641-.197088-.38515-.270636-.56207-.0689-.16447-.1096-.31026-.1237-.43736-.0125-.11082 0-.20279.0399-.29237.03685-.0819.123701-.15521.248844-.22691.119695-.0592.226891-.0865.318385-.0718.0947.0126.187795.0562.273841.1279.103351.0827.201895.198.305246.34315.107197.15121.212791.33213.318385.52854.304285.57005.366937.87791.366937 1.03615M96.423228 99.534356c-.025-.06243-.04695-.124869-.05945-.196564-.0689-.212053-.1096-.474086-.122098-.781946l-.05945-1.241341c-.0125-.309457-.0407-.603426-.08444-.855239-.0532-.263629-.134596-.513047-.234743-.734521-.0939-.226903-.21904-.442789-.372384-.634563-.147897-.180117-.323193-.390733-.523486-.571649-.585175-.533167-1.192303-.796796-1.796386-.783543-.597674.01246-1.186055.315845-1.73694.92933-.597674.640151-.863022 1.283496-.810465 1.893149.04999.608854.387927 1.212439 1.001464 1.769877l.409879.376522 1.289406-1.422896-.175297-.152812c-.16424-.164469-.29419-.295406-.419333-.421711-.10944-.11465-.197088-.234728-.250286-.364227-.05015-.102035-.0721-.201035-.05945-.300196.0062-.08958.05945-.193371.164241-.279118.179943-.205027.433433-.353209.940415.110019.153344.144988.269193.234727.36934.347779.09694.106027.162638.211255.222084.336763.05336.13413.103352.266663.128348.42187.03766.150418.0532.348419.0564.579953l.04695.88893c.01554.410853.06249.793603.131392 1.142181.0564.354007.153345.713447.275443 1.018267.131392.31649.300439.61828.497528.90602.197248.27129.435837.52007.71128.76246l.172091.16847 3.483173-3.732331-1.320651-1.229525z" fill="#fff"/><path d="M112.03966 78.27603l-1.88403-.755599-8.83164-3.538158c.38809-6.015251-1.408295-11.942359-1.618042-12.59736-.416128-1.508644-1.533442-6.012058-2.303368-9.140161h9.29808V32.496187h-2.67592l-2.76019.0016c.93881-2.117657 1.63359-3.594365 1.64608-3.616879l.70423-1.502416-1.03591-1.295153-9.902801-12.332135-1.761936-2.186957-2.103075 1.863289c-.029.02667-3.052143 2.657211-8.207361 5.447753C77.719881 7.8925949 67.731035.00000304 56.010057.00000304c-11.731233 0-21.724725 7.90121446-24.602373 18.89476396-4.738128-2.580725-8.212007-5.477294-8.253508-5.512423l-2.096024-1.762852-1.71659 2.131709-9.9003965 12.332135-1.0397603 1.295153.7080753 1.502416c.00929.02108.7048707 1.499222 1.6422415 3.616879l-2.7783026-.0016H5.2992693l.00304 2.663438.0016 14.423285v2.661842H14.736421c-.853568 3.538956-1.779882 6.84558-2.401912 9.05601-.345786.927892-1.972484 5.718249-1.589043 12.654206l-8.8997263 3.565466L8.9e-7 78.261978l.18394896 1.976501c.0195486.220676.48583037 4.86828 2.96914135 10.071087l-.5508854.429535-1.65233604 1.278706.84972244 1.901612c2.733597 6.132291 6.2778192 9.643151 9.1234198 12.461631l.144051.13892c6.433567 6.3683 14.012649 9.48012 20.577608 11.68815.318546.11529.642379.24479.966373.37573v9.24858h46.794982v-9.25401c.336332-.13716.674426-.2697 1.026461-.3992 6.491572-2.17913 14.071295-5.29095 20.503423-11.65925l.69477-.6815c2.7634-2.71023 5.89919-5.77893 8.58135-11.93933l.82617-1.892191-1.6368-1.267848-.51018-.396003c2.29712-4.717064 2.898-9.812247 2.92315-10.054799z" fill="#fff"/><path d="M76.739247 125.21051v-8.34959c.903721-.40702 1.826831-.78195 2.786955-1.13675 6.284068-2.11447 13.518166-5.07954 19.555794-11.05822 2.826054-2.79741 6.137134-6.017491 8.712744-11.79498l-2.31267-1.791753c3.19219-5.545797 3.70847-11.062052 3.70847-11.062052l-10.721921-4.297589c.497688-4.033321.203497-8.139934-.904362-12.116249l-.41004-1.451798c-.866867-3.085948-2.18832-7.78433-3.214781-12.553609h10.118634V35.171441l-7.069695.0032c1.298859-3.131143 3.517625-7.418672 3.517625-7.418672l-9.906647-12.335328-1.872979 1.424492c-3.11159 2.36947-6.50407 4.384135-10.089793 6.016848l.0046-.004C77.391721 11.500372 67.735522 2.6634414 56.008134 2.6634414c-11.730431 0-21.386791 8.8369306-22.633093 20.1945476l.0032.004c-3.587321-1.632721-6.978199-3.647386-10.092993-6.016856l-1.869934-1.424492-9.905844 12.335328s2.218924 4.287529 3.516822 7.418666l-7.0704984-.0032.0016 14.426479H18.076189c-1.027422 4.769279-2.349515 9.467661-3.216543 12.553609l-.406835 1.451798c-1.108661 3.976315-1.40205 8.082928-.905163 12.116249L2.8233291 80.017165s.5172363 5.516255 3.7078215 11.062052L4.2223347 92.87097c2.5732024 5.777489 5.8834823 8.99757 8.7103363 11.79498 6.03923 5.97868 13.270123 8.94375 19.554352 11.05822.961565.3548 1.886438.72973 2.786955 1.13675v8.34959z" fill="#221e1f"/><path d="M15.999555 37.573965l-5.633998.0032v9.620473h8.139902c.485991-1.309051-.874559-5.465643-2.505904-9.623673M96.018316 37.573965l5.633354.0032-.003 9.620473h-8.13766c-.481985-1.309045.873116-5.465637 2.507506-9.623667M56.009577 30.236735c-12.861686 0-24.715819-4.290563-34.208579-11.508034l-6.828705 8.485159c10.982458 9.529297 25.331599 15.301996 41.037284 15.301996 15.699595 0 30.045531-5.76727 41.027188-15.294172l-6.833351-8.485159c-9.488915 7.212681-21.339843 11.50021-34.193837 11.50021" fill="#6599d1"/><path d="M72.413081 13.617391c.108799 1.312238.128348 3.675481.05785 4.568084.71128.584903 2.390214 2.154383 3.553676 3.505583-.265989-1.969475-1.520143-5.594338-3.611521-8.073667M39.598541 13.617391c-.110241 1.312238-.128348 3.675481-.05785 4.568084-.71128.584903-2.393419 2.154383-3.555278 3.505583.265989-1.969475 1.521745-5.594338 3.613123-8.073667" fill="#6599d1"/><path d="M70.57888 11.375823c-1.483449-1.7855256-4.826578-3.7393525-6.978204-4.6469654-2.227417.6019882-4.522292 1.5375449-6.612869 2.5807249.0016.4102142-.07739 2.7702635-.05464 4.1106055 2.959688 1.744807 6.000935 3.97871 8.399642 6.472889 1.837887-.499793 3.926862-1.080704 5.556605-2.107437.152543-2.035742-.02035-4.359225-.310534-6.409817M41.431942 11.375823c1.480244-1.7855256 4.828019-3.7393525 6.978043-4.6469654 2.227577.6019882 4.522292 1.5375449 6.611267 2.5807249 0 .4102142.07819 2.7702635.0564 4.1106055-2.959848 1.744807-6.000934 3.97871-8.399802 6.472889-1.837887-.499793-3.927663-1.080704-5.556605-2.107437-.154145-2.035742.02195-4.359225.310695-6.409817" fill="#fecb09"/><path d="M56.008135 5.2630084c-1.674288-.0015968-3.404979.1980014-4.677079.7156793 1.535044.5395538 3.167832 1.1797052 4.677079 1.9064023 1.507644-.7266971 3.140592-1.3668485 4.674034-1.9064023-1.270658-.5176779-2.999746-.7172761-4.674034-.7156793" fill="#6599d1"/><path d="M71.728721 19.779386c-.363732.155048-4.738128 1.976501-6.19642 2.382723-.179302 1.406449-.728425 3.670691-1.220665 5.045204 3.943366-.601828 7.782579-1.633352 11.466045-3.078123-1.050816-1.678701-2.794005-3.364268-4.04896-4.349804M46.482527 22.162109c-1.45685-.405423-5.832689-2.227515-6.194978-2.382723-1.257359.985536-3.001349 2.671901-4.050563 4.349804 3.683626 1.44557 7.519635 2.477093 11.466045 3.078922-.491278-1.375312-1.042965-3.639554-1.220504-5.046003" fill="#fecb09"/><path d="M62.16001 27.490423c1.126607-2.24013 1.513893-5.130312 1.802635-6.310816-1.380899-1.794787-5.713794-4.901812-7.953869-6.227304-2.241518 1.325492-6.572811 4.432517-7.957716 6.227304.296594 1.214036.788673 4.066853 1.697041 6.299798 2.062376.236325 4.152152.355605 6.260675.355605 2.070227 0 4.120905-.117684 6.151234-.344587" fill="#6599d1"/><path d="M56.008455 110.42875c-7.328636-5.94819-15.061863-9.17066-20.508067-10.796191-13.418019-4.002982-23.050183-19.864013-18.726581-35.387324 1.784529-6.41301 6.146427-21.065434 5.058116-28.641703 17.28303 9.385906 31.037542 8.922678 34.176532 8.988306 3.135785-.06563 16.891898.3976 34.173487-8.988306-1.086869 7.576269 3.272625 22.228693 5.062763 28.641703 4.3228 15.523311-5.311607 31.384342-18.729626 35.387324-5.449408 1.625531-13.181033 4.848001-20.506624 10.796191" fill="#fff"/><path d="M56.009576 73.57158c2.757953 3.918672 12.389155 17.775098 17.060145 25.207018 1.079659-1.378505 1.646888-3.248182.883372-5.518491-.03221-.14435.08605-.220676.241633-.08814 1.64849 1.379942 4.454193 2.504239 6.673918 1.61467-7.44144-8.151594-14.644132-16.485537-21.862526-25.249974.544636-.66586 1.328502-1.587365 2.020234-2.440368 2.846241.565263 6.023527.90442 8.622687-.704022 4.401797-2.7321 5.606598-6.345786 6.657415-10.141345.0532-.183152.155747-.504425.348189-.47712l5.476808 1.416668c.229936.0717.186993-.03193.153344-.152014l-.964771-4.359224c-.459231-2.094983-1.172754-4.044978-3.232085-5.152987-3.622417-1.944406-7.923266-1.791594-11.869676-1.590558-.04855-.0014-.08989.05461-.07194.09597.555532 1.203816 1.642241 2.166678 2.810349 2.556613-2.022477 3.181116-12.947091 17.230913-12.947091 17.230913S45.084968 51.769392 43.061048 48.588276c1.166506-.389935 2.253215-1.352797 2.810349-2.556613.01474-.04136-.02516-.0974-.07355-.09597-3.94641-.201036-8.245657-.353848-11.869836 1.590558-2.057568 1.108009-2.768848 3.058004-3.228881 5.152987l-.966213 4.359224c-.03525.120079-.07675.22371.153344.152014l5.477449-1.416668c.190199-.02731.292748.293968.344344.47712 1.053861 3.795559 2.259464 7.409245 6.662061 10.141345 2.594353 1.608442 5.775645 1.269285 8.621246.704022.691571.853003 1.473995 1.774508 2.020073 2.440368-7.221439 8.764437-14.422688 17.09838-21.862366 25.249971 2.218123.889569 5.022223-.234728 6.673758-1.61467.15735-.132533.27384-.05621.242595.08814-.768324 2.270309-.200293 4.139986.880968 5.518491 4.672432-7.43192 14.303634-21.288346 17.063189-25.207018" fill="#161413"/><path d="M76.103277 49.342275c1.198713 0 2.169572.966055 2.169572 2.159014 0 .311054-.0673.605022-.183789.870088-.0087.09277.04455.117045.168247.153611l1.864325.643185.418693 2.247157-2.791602-.723664-.512429-1.136751c-.029-.08798-.03365-.152014-.0979-.150417-.305887.162872-.661927.258839-1.035113.258839-1.19695 0-2.16797-.966056-2.16797-2.162048 0-1.192959.97102-2.159014 2.16797-2.159014M35.908665 49.342275c-1.19711 0-2.169572.966055-2.169572 2.159014 0 .311054.06874.605022.186192.870088.0079.09277-.0423.117045-.170649.153611l-1.862884.643185-.418532 2.247157 2.793204-.723664.512429-1.136751c.029-.08798.03205-.152014.09774-.150417.30749.162872.658884.258839 1.032069.258839 1.196951 0 2.169573-.966056 2.169573-2.162048 0-1.192959-.972622-2.159014-2.169573-2.159014" fill="#6599d1"/><path d="M52.940128 88.944155c.483427-1.566287.876161-2.338972 1.86673-3.022715.299638-.204389.794922-.598795 1.654739-.753204.615781-.112254 1.581994 0 2.028727.216684-1.12116.860827-1.304147 2.205001-.920867 3.237962.892025-.548816 1.949731-.979948 3.021699-.902025 1.588242.121676 2.808746.996395 3.491825 2.242367-1.27226-.110658-2.657005.438956-2.962892 1.722292 1.294853.252612 2.592751.976115 3.225676 2.105203.558737.996394.816875 2.209632.420936 3.425105-.740122-.915278-1.874581-1.566447-3.28288-.953601.414686.583306.637732 1.051005.75262 1.646765.200293.997991.23939 1.842372-.203337 2.800602-.381037.83656-1.036716 1.79175-1.916082 2.10744.278487-1.11887-.406835-2.8006-1.647048-3.088345-.707274 3.386945-3.32358 4.172885-5.589293 3.798595 1.179004-1.13053 1.58664-2.28436.909811-3.42111-1.922331 1.69578-5.346858 1.05866-6.53836-1.296754 1.390192.148181 2.707799-.632327 2.917546-1.675507-1.336354-.229938-2.646911-1.146013-3.278234-2.300809-.466282-.850607-.750377-2.131709-.221444-3.281714.810465 1.303616 2.085129 1.287329 3.24138.910647-1.4224-2.2454-.992011-5.176938 1.29966-6.422112-.058 1.197589.429428 2.241568 1.729088 2.904234" fill="#161413"/><path d="M55.84149 87.210045c-.400585.233131-.972462.647816-1.157212 1.06809-.488073 1.103219-.43103 1.988158-.334729 2.393582-1.334912.194967-2.758754-.405424-3.640523-1.360462-.212791 1.313037.421736 2.516854 1.358947 3.364268-.865265 1.041743-1.640639 1.523493-3.640363 1.630318.672824.787535 1.550587 1.566447 3.52227 1.491557.0282 1.603013-.545277 2.719486-1.487295 3.647378 1.773634.22834 2.683604-.501391 3.557522-1.496188.39658.339955 1.204802 1.284933 1.393398 1.740177.27384.658035.238588 1.479105.230897 1.964045.807421-.60342 1.713385-1.51487 1.444993-3.576479 1.693837.0297 2.55766.338518 3.749963 1.429282.330243-1.62409-.58822-2.590145-1.48409-3.371453.647827-1.185773 2.163323-1.66385 3.621616-1.673112-.82697-1.416668-1.995078-1.561656-3.551273-1.422895-.148537-1.365252.373987-2.829504 1.432655-3.769851-1.550748-.08032-2.677355.438956-3.430136 1.51503-.927916-.78514-1.675089-1.815226-1.58664-3.573287" fill="#fecb09"/><path d="M20.409042 79.502521c2.408321 1.074477 5.427456 1.242938 7.827926-.379716 2.649954-1.794787 3.466829-4.905644 2.443412-7.831115-1.014763-2.894813-4.004254-4.40665-6.9625-4.601617 1.273702-1.277109 3.539576-1.850994 5.459503-1.822092 5.920336.08655 8.876979 3.446183 9.929398 7.768681.683079 2.800602.137642 5.625476-1.539851 8.001173-1.336194 1.890754-2.908092 3.184151-5.158262 3.90462-1.973927.416282-4.026207.609653-6.374922-.124709-2.495008-.77971-4.52069-2.505995-5.624704-4.915225" fill="#161413"/><path d="M25.073463 81.904246c1.943482 1.521897 4.479991 1.55 6.713657.903621 3.183534-.917672 5.449407-3.757236 5.762345-7.065457.156549-1.638781-.0548-3.305825-.924712-4.759858-1.036716-1.730915-3.137548-4.369444-7.450734-4.201782 3.134182 2.193984 4.43224 6.141557 3.258524 9.67205-1.035113 3.120279-4.072995 5.371906-7.35908 5.451426" fill="#fecb09"/><path d="M82.307228 80.606059c2.028727.828732 4.300849 1.697224 6.342074 2.445797-.255093-2.870861-.38248-4.534711-.625074-6.918872 1.394198-1.599979 3.534768-4.196193 4.348598-5.225481-2.13368-.31808-4.35645-.785938-6.492373-1.167889-1.353499-2.022489-2.671106-3.622468-3.961312-5.756412-1.448198 2.611064-2.67415 4.242979-3.695964 5.895173-2.121823.458437-4.320397 1.008051-6.443021 1.399582.847319 1.001025 3.076338 3.51708 4.529343 5.066282-.153345 2.388951-.22545 4.059029-.376391 6.93452 2.013825-.817075 4.375999-1.769079 6.37412-2.6727" fill="#161413"/><path d="M82.29441 78.726004l4.393945 1.762851-.562583-4.715467s2.302567-2.765633 2.964495-3.696559c-1.748637-.309457-3.09124-.639992-4.58174-.946415-.96461-1.370042-1.718833-2.725873-2.491002-3.961625-.726182 1.263057-1.458453 2.642361-2.371468 4.04881-1.481045.361033-2.810349.73995-4.544244 1.115035.694776.900587 3.092041 3.584943 3.092041 3.584943l-.391132 4.73415z" fill="#fecb09"/><path d="M5.5280839 81.520699c.5672294 3.271494 1.5749428 5.630106 2.8746032 7.969876 2.2274169-1.563253 5.5235969-3.85001 7.4303849-5.247197-.846678-2.003806-1.481206-4.062223-1.898937-6.150978zM17.374525 87.420502c-.154145-.279118-.302842-.562069-.446733-.841187-2.881653 2.045003-7.7426809 5.468671-9.6932129 6.985937 1.9388349 3.994998 4.6161899 6.645978 7.3952929 9.396608 5.127017 5.07809 11.169452 7.98249 18.671782 10.49918 4.180352 1.54218 7.352991 3.36587 10.306429 5.41486 0 0 4.712491-8.15846 5.911043-10.17791-5.544106-3.56387-10.864365-5.61765-14.709828-6.76766-7.157345-2.136337-13.510314-7.424891-17.434773-14.509828M106.48786 81.520699c-.56642 3.271494-1.57414 5.630106-2.87284 7.969876-2.22837-1.563253-5.523753-3.85001-7.42958-5.247197.844915-2.003806 1.47704-4.062223 1.899578-6.150978zM94.640782 87.420502c.15014-.279118.298837-.562069.447535-.841187 2.879891 2.045003 7.743323 5.468671 9.689843 6.985937-1.93402 3.994998-4.61298 6.645978-7.391923 9.396608-5.130222 5.07809-11.171856 7.98249-18.672743 10.49918-4.180353 1.54218-7.352831 3.36587-10.30643 5.41486 0 0-4.710728-8.15846-5.912485-10.17791 5.545549-3.56387 10.863404-5.61765 14.71127-6.76766 7.157346-2.136337 13.513519-7.424891 17.434933-14.509828M56.007974 113.52523l-1.522546-1.23591c-.790917-.64238-1.584397-1.24741-2.379159-1.82209l-.230898.32127c-2.172617 3.28794-3.872863 6.74499-5.825638 10.16306-1.296456.64718-2.817399 1.30681-3.493428 1.76286 0 0-.212791.0976.08845.0976h26.724997c.30124 0 .08685-.0976.08685-.0976-.674426-.45605-2.19537-1.11568-3.493428-1.76286-1.951333-3.41807-3.651419-6.87512-5.825638-10.16306l-.2325-.32127c-.79332.57468-1.58664 1.17971-2.377556 1.82209z" fill="#6599d1"/><path d="M40.67868 30.101328l1.614841.428098.06265.01565-.0157.06227-2.012223 8.033907-.0149.06243-.06265-.01645-1.611636-.40239-.06265-.01389.01795-.06243 2.006134-8.061053.0141-.06243zM45.661967 31.32702l-.06105-.01405-1.718994-.381952-.06409-.01565-.01009.06307-1.675891 8.075264-.01106.06547.06105.0094 3.79547.782745.06409.01245.0133-.06084.385684-1.85802.0149-.06068-.06265-.01325-1.978573-.456201 1.235407-6.086947zM38.646268 31.700509c-.539829 1.320701-1.099367 1.467286-1.473995 1.502416.224488.339157.721215 1.156232.144692 2.435736-.644783 1.422098-2.037379 1.776903-3.921414.994957l-1.628141-.676079-.05704-.02411.025-.057 3.219587-7.863052.02179-.05844.06105.02331 1.628141.674482c1.83324.759432 2.498213 1.786324 1.980335 3.047785zm-3.151488.01485c.76592.315685 1.042965.458437 1.27835-.117044.235544-.574524-.276885-.758633-.828572-.986175zm.236987 2.902637c.294991-.72031-.255093-.94881-.92311-1.224735l-.570434 1.387767c.593027.245585 1.189259.579314 1.493544-.163032M51.605216 34.062155c-.437439-.08271-.894267.01485-1.283957.28295-.496886.335325-.848921.891326-.972462 1.525888-.224648 1.197589.415488 2.335139 1.430892 2.530107.432793.08575.891224-.01485 1.287162-.281513.491279-.330535.845717-.88957.965412-1.528124.230737-1.197589-.414686-2.332904-1.427047-2.529308zm3.279836 2.888744c-.250446 1.298187-.961566 2.430308-1.959986 3.099202-.787872.533326-1.701688.735958-2.570158.565262-2.033373-.396003-3.316529-2.684357-2.854894-5.101411.24644-1.298187.961566-2.428711 1.95598-3.100798.791718-.534125 1.70329-.729731 2.568556-.565262 2.036577.3976 3.318932 2.683558 2.860502 5.103007M60.696749 40.401713l-.625074-8.242767-.0079-.06084.0657-.0046 1.735337-.146584.06409-.0032.0048.06164.620427 8.247557.0079.06068-.0657.0062-1.732293.141155-.0657.0062zM72.396898 38.394713l.145653-8.635736v-.07952l-.0798.01709-1.714347.380514-.04999.0094-.0016.04822-.134597 4.215035-1.741587-3.798594-.02115-.04599-.04919.01086-1.74399.382111-.05096.01086v.05062l-.0093 4.191562-1.863685-3.780549-.0242-.04599-.04775.01086-1.719794.378119-.0798.01645.03685.07473 3.695163 7.787523.02035.04599.05175-.01086 1.605388-.351772.04775-.01245v-.05062l.118894-4.303816 1.882433 3.864062.02435.04519.04919-.01166 1.602343-.35241.05015-.0078zM81.45382 35.588043l-.0822.03114-1.893329.693165-.04535.01629-.03061-.03816-.75262-.970686-2.29792.839749.05176 1.231122.003.04599-.04374.01629-1.893489.692366-.0822.0305-.0014-.09054-.0931-9.020082v-.04519l.04374-.01565 1.291008-.472489.04374-.01325.029.03353 5.694246 6.967255zm-5.238059-1.349603l1.31985-.482709-1.412946-1.848598zM84.84598 33.845471l-2.882294-5.783557 1.236848-.624503.06025-.02651-.0282-.0578-.878564-1.762851-.03205-.05605-.0572.02874-4.159842 2.094983-.058.0305.029.05764.876322 1.759019.02884.05924.0564-.0281 1.240054-.624503 2.882294 5.785314.029.05525.05785-.02651 1.570296-.793762.05785-.02874zM93.013923 28.717873l-.07499.05158-1.683742 1.1227-.03749.02491-.03766-.0289-.953714-.767894-2.048275 1.359024.337934 1.180344.01811.04599-.0415.02571-1.676692 1.121263-.07515.05062-.02339-.08798-2.187679-8.740325-.0125-.04359.0383-.02651 1.143913-.761827.03685-.02571.0383.02571 7.16744 5.424281zm-5.414157-.07329l1.169711-.78035-1.802636-1.458024zM22.136689 28.0782c-.144051.215087-.0822.504425.134436.648614.104153.06866.229296.09038.348991.06706.118893-.02571.224648-.0974.293389-.201195l.01186-.01948.02179-.0078-.03365.0273 3.357228-5.138775.03525-.05461.054.03657 1.474796.971485.0524.03513-.03509.05222-3.452729 5.282326c-.343542.525503-.871674.884939-1.487455 1.012841-.611774.127105-1.241655.0078-1.772031-.340754-1.085908-.71488-1.392596-2.179133-.682277-3.266863l.01875.08814-.0524-.03513.03365-.05301.298035-.456841.03685-.05078.054.03353 1.472393.970846.0532.03497-.03509.05461zM29.476381 31.837832l1.868331-3.66606.0274-.05924.05945.0305 1.544499.793602.054.0289-.0266.057-1.990431 3.909251-.0032-.06387.02115.03034-.01795.03353c-.337934.665859-.913015 1.159426-1.619648 1.386329-.687725.224508-1.423041.164469-2.068625-.167662-1.339398-.691568-1.866729-2.357016-1.1766-3.72067l1.993475-3.909251.029-.0586.05785.0313 1.541294.793602.05784.0305-.02724.05924-1.866889 3.66606c-.221444.432729-.0548.966055.374788 1.181941.203497.105228.434234.12407.654076.05221.222245-.0717.405232-.226104.514032-.438956l.0125-.02411.0274-.0078zM33.630133 27.058014l-3.036439.506021-.128348.01788.05945-.110657.834821-1.638142.029-.0578.05544.0289 2.204824 1.135953.172092.08591zM24.562155 108.3946l.0516.0273 2.055485 1.14138.06874.0398.03525-.0717 4.124751-7.4506.0383-.0671-.06874-.0367-1.377855-.75704-.0673-.0351-.0383.0687-2.674952 4.82708 1.085107-5.78995-.05159-.0297-2.056928-1.143774-.0673-.03657-.03685.06706-4.123149 7.450604-.0383.0717.0657.0351 1.382502.76486.0689.0335.0391-.064 2.67415-4.84097zM36.883051 109.41366l-1.830036-.57005-.05096-.0109-.03044.043c-.50618.64159-1.274504.92933-1.94893.73276-.414686-.12008-.764478-.41085-.98496-.81787-.279449-.50283-.336492-1.14298-.136199-1.74641.341138-1.14856 1.400447-1.84636 2.371467-1.56485.614979.18316 1.076454.73453 1.203199 1.44941l.01106.0468.04294.0187 1.878587.56382.09069.0257.0133-.0881c.147095-1.98593-.911412-3.75421-2.560704-4.23915-2.021676-.58634-4.228903.83512-4.952521 3.1982-.383441 1.26322-.267592 2.57929.290985 3.63732.452181.87248 1.186215 1.48214 2.053082 1.73634 1.710982.4974 3.64517-.4538 4.587187-2.31102l.0407-.0779zM17.958579 103.83578l1.379457 1.05883.0516.0413.0399-.0516 5.112916-6.512654.0383-.04822-.05079-.03832-1.37465-1.063459-.0516-.03816-.0399.05062-5.116121 6.513443-.0399.0484zM39.117678 112.12964l.524287-1.07432 1.988026.96286.932564-1.90863-1.984822-.96446.480382-.98314 2.599 1.26305.931122-1.90863-4.316552-2.09818-3.805564 7.78896 4.310302 2.09514.938813-1.908zM18.615861 98.888456c.08685-.542588.0046-1.124297-.255093-1.729319-.299638-.694601.04535-1.042381.280891-1.191361l-.0046-.0014c.08444-.05381.182347-.08814.289383-.07649.120496.01102.23955.06866.316142.161435.168246.202633.139244.496601-.06105.661229l-.07355.06227-.04839.04136.04214.04599 1.122762 1.360621.04535.04599.04775-.03513.209747-.177083.04839-.04599-.003-.0038c.94362-.842783 1.065558-2.289152.254292-3.262233-.400586-.491171-.969418-.791367-1.592248-.847414-.565627-.04918-1.102412.109859-1.55924.431132-.482786.274488-1.152565.926295-1.317607 1.874307h-.0016c-.08444.541151-.0046 1.12749.256695 1.726285.302843.697795-.04454 1.047811-.280089 1.191362l.0062.0093c-.08685.04838-.186192.08351-.291787.07329-.119695-.01086-.238749-.0717-.315341-.163671-.165041-.201195-.141647-.49197.06105-.664263l.07355-.05924.04775-.04215-.0399-.04599-1.12196-1.360621-.0415-.04599-.04775.03513-.213592.17389-.04455.04599v.0024c-.948266.847414-1.070365 2.299212-.253491 3.283948.398984.48414.964611.78594 1.589845.83815.56082.0514 1.103854-.10682 1.560842-.43033.475576-.27209 1.14856-.924698 1.313601-1.881492M68.39104 107.24971c.115049.38977.100948.70562-.04615.96605-.152543.27593-.447534.51768-.872315.72351l-.318386.1552.693975 1.41747 1.356703-.66123 2.575606 5.23634 1.770589-.86242-3.832964-7.84038-1.3817.67512zM80.149032 104.96007c-.226891-.43816-.497527-.81005-.802613-1.09859-.312297-.297-.677631-.4982-1.089113-.5956-.412443-.0944-.889621-.0422-1.418554.16287-.858215.3291-1.40205.83815-1.602343 1.51487-.197088.66443-.115048 1.47607.248844 2.41945.142448.36407.310534.69317.491278.97532.191.28934.413886.53013.655679.71025.250446.18555.527331.29796.833218.34235.60873.0763 1.40205-.23632 1.802636-.69157.0673-.0811.128348-.16926.181546-.25421.083.21908.151741.43273.209746.6293.0657.22834.10239.4249.103992.60023.0032.15824-.02275.28774-.0806.39456-.0524.0974-.154946.17389-.30124.23154-.251087.0928-.356682.011-.391933-.014-.123701-.10363-.23234-.27433-.325436-.51608l-1.79174.68997c.161997.39456.36229.71647.591425.94897.233942.23233.487433.3952.759831.48797.265989.0881.550725.11545.842512.0765.269194-.0398.539989-.11162.809023-.21525.618985-.23616 1.064116-.5528 1.322253-.93875.262945-.39137.394337-.84198.394337-1.33635 0-.47169-.08685-.99176-.262784-1.54137-.165202-.51545-.360688-1.06203-.573639-1.6225-.18459-.47568-.386485-.93252-.606327-1.35982zm-1.483449 2.10903c-.01714.11306-.06714.28615-.352836.39297-.275282.10523-.427184.0157-.517076-.064-.118894-.10044-.309092-.35161-.538387-.94881-.08525-.20902-.150941-.40702-.203337-.59017-.04695-.16926-.07194-.31968-.07194-.45381 0-.11145.025-.20423.0798-.28774.04615-.0779.140846-.14179.272238-.19481.126746-.0446.236987-.0554.327038-.0329.0947.0251.176098.0765.253491.1576.0939.0958.179142.22212.260541.37892.08989.17229.171291.36566.253491.57452.229295.59736.252689.91001.236986 1.06825M88.299831 100.86256c-.276885-.41021-.590624-.74538-.925513-.996392-.352836-.257402-.740924-.410214-1.158655-.457-.420134-.04758-.886576.06547-1.386507.332132-.81367.43129-1.286201 1.00278-1.406697 1.69738-.115048.67752.06409 1.47447.541432 2.36947.187794.34539.38969.65341.610973.90905.227693.26826.474133.48351.737078.6293.267591.15281.559378.23153.86847.23616.611774.003 1.360549-.40223 1.70329-.90043.05945-.0913.110242-.18554.151742-.27832.107998.21286.207343.40926.284096.5988.09454.21588.152543.40925.179142.58777.01955.15202.0085.28312-.03365.3976-.03846.1022-.131552.19034-.270796.26523-.238588.12774-.353637.056-.394336.0319-.134597-.0819-.261983-.24096-.387286-.4709l-1.690632.89883c.206542.37669.443528.67065.701665.87169.261343.1996.530536.3291.816074.38834.270796.0576.555532.0476.842672-.0289.267591-.0717.525729-.17533.776976-.30483.586778-.30722.990408-.67592 1.201757-1.09076.209587-.41868.285538-.88175.226091-1.37148-.05945-.47473-.212791-.97771-.450739-1.50162-.228494-.4958-.48503-1.01667-.770567-1.54537-.240191-.45221-.495284-.87168-.76608-1.26769zm-1.2173 2.26265c0 .11848-.029.2986-.296594.43736-.262784.13572-.424781.0671-.525729-.008-.131392-.0803-.350592-.30802-.651672-.87328-.105755-.19481-.195646-.38514-.272399-.56207-.0673-.16303-.107837-.30882-.12354-.43975-.0095-.10523 0-.2012.0399-.28694.0383-.0834.123541-.15665.250286-.22691.119695-.0623.22545-.088.316943-.0733.09774.014.189397.0578.275443.1279.100948.0827.203337.19657.305086.34459.105595.15058.212791.33069.319988.52869.301241.56686.36229.87329.36229 1.03153M96.088339 99.430565c-.0282-.05924-.04999-.123112-.06265-.194968-.0657-.212053-.106395-.472488-.118894-.780349l-.05945-1.239744c-.0125-.311054-.0407-.601828-.08765-.855238-.04999-.262033-.131392-.51161-.231538-.731328-.0947-.225466-.219842-.442948-.373186-.632327-.1503-.18411-.322391-.392969-.522684-.573885-.585176-.533326-1.192304-.796796-1.793182-.780509-.597834.01086-1.18301.312651-1.73694.924699-.593828.640151-.859817 1.28653-.806619 1.890754.04919.609652.384081 1.214674 1.000663 1.770675l.40363.373488 1.29261-1.418265-.175296-.152812c-.162798-.164469-.29419-.293968-.422538-.421871-.103191-.113052-.190839-.234568-.247242-.367261-.04999-.099-.07194-.201035-.06249-.295405.0093-.09118.06249-.193371.168887-.280715.178501-.205825.431992-.353209.942017.111456.1503.144988.262945.233131.366136.344586.0939.107624.162798.212852.223847.336124.0516.137163.09854.271293.126745.424106.0375.14898.04999.345385.0532.576918l.04695.890528c.01875.407659.0657.792165.134597 1.140584.0532.354007.153344.710254.275442 1.013644.128188.31648.297235.61987.494323.90825.194044.26666.435036.51783.71128.75863l.172092.16926 3.480128-3.725302-1.320651-1.232718z" fill="#fff"/></svg>