<svg xmlns="http://www.w3.org/2000/svg" width="268.66" height="59.96" viewBox="0 0 268.66 59.96"><path d="M29.15,23.78c8,3.72,16.24-2.54,20.59-9C54.13,6.18,43.23.61,31,0,19.67,0,14.46,4.38,12.35,6,5.11,13.78,24.36,21.19,29.15,23.78Z" fill="#c8161e"/><path d="M32,37.86c-1-4.31-3-6.3-5.94-8.71-3.34-2.76-12.21-9.21-17.67-9.21C1.67,20.65.7,22.45,0,31.23,0,47.78,13,60,24.6,60,33.84,59.85,32.38,43,32,37.86Z" fill="#c8161e"/><path d="M42,29.35c-2.2,2.29-4.23,5.59-4.31,9.22.47,4-2.65,20.88,6.33,16.51C62.11,48.44,69.11,4,42,29.35Z" fill="#c8161e"/><path d="M78.1,35.32c-1.39.13-.59-3-.79-3.68.52-4.38-7.48-4.39-7,0V45.86c-.09,2.46,1.59,3.38,3.86,3.2,5.51.07,1.65-6.22,3.9-7.57,1.66-.35.67,3.64.92,4.37.09,3.55-2.2,5-5.51,4.81-3.2,0-4.81-1.62-4.81-4.81V31.68c-.69-6.53,11-6.55,10.28,0C78.73,32.38,79.59,35.52,78.1,35.32Z" fill="#595757"/><path d="M86.68,50.68c-3.37.26-5.85-1.18-5.73-4.81V31.68c0-3.2,1.62-4.81,4.81-4.81,3.34-.26,5.8,1.18,5.69,4.81V45.86C91.49,49.06,89.87,50.68,86.68,50.68Zm0-22.23c-2.29-.19-4.14.64-4,3.2V45.86c0,2.14,1,3.2,3.2,3.2,2.3.19,4.13-.64,4-3.2V31.64C89.87,29.5,88.82,28.45,86.68,28.45Z" fill="#595757"/><path d="M102.21,20c3.32-6.41,1,30.68,1.62,29.8.11,1-1.57,1.08-1.62.1,0,.05,0-1.19,0-1.19-2.67,2.86-8.89,2.91-8.67-1.9v-16c-.31-4.81,6.12-4.74,8.67-2Zm-7,26.61c.19,4,4.92,2.57,7.05.3V30.77c-2.21-2.4-6.65-3.84-7.05.17V46.61Z" fill="#595757"/><path d="M115.47,45.86c.66,6.59-10.93,6.58-10.25,0V31.73c-.68-6.58,10.9-6.59,10.25,0,.18,10.46.81,7.26-8.58,7.74.44,2.76-1.68,10.06,3.24,9.63,2.24.15,3.78-.87,3.72-3.24.13-.66-.47-3,.79-2.84,1.26-.13.64,2.19.78,2.84Zm-8.58-14.13v6.13h6.91V31.65C114.31,27.26,106.3,27.34,106.89,31.73Z" fill="#595757"/><path d="M126.41,50.59c-2,1.11-.41-21.64-.88-22-.6,0-2,.24-1.88-.76-.07-1,1.29-.71,1.88-.74,0-3-.76-8,3.68-7.7.61,0,1.62-.05,1.53.83A.74.74,0,0,1,130,21c-3.69-.77-2.62,4-2.76,6.12.65.18,3.51-.55,3.37.75.13,1.28-2.74.56-3.37.74C126.78,29,128.15,51.41,126.41,50.59Z" fill="#727171"/><path d="M136,50.68c-3.38.26-5.85-1.18-5.73-4.81V31.68c0-3.2,1.62-4.81,4.81-4.81,3.34-.26,5.8,1.18,5.69,4.81V45.86C140.68,49.06,139.1,50.68,136,50.68Zm0-22.23c-2.29-.19-4.14.64-4,3.2V45.86c0,2.14,1.05,3.2,3.2,3.2,2.3.19,4.13-.64,4-3.2V31.64c0-2.14-1.09-3.19-3.24-3.19Z" fill="#727171"/><path d="M143.78,50.59a.75.75,0,0,1-.79-.79V27.7a.72.72,0,0,1,.7-.74c1.28-.22.86,1.61.92,2.32,1.13-1.27,3.78-3.71,4.47-1.62-.69,1.65-3.45,1.47-4.46,3.19C144.19,31.25,145.63,51.65,143.78,50.59Z" fill="#727171"/><path d="M162.86,49.28c.23,1.55-2.45,1.79-2.63.3,0-.38,0-9.25,0-9.62L155.5,21.32c-.72-1.69,2.35-2.29,2.54-.58l3.5,15.45c.62-.66,2.92-17.55,4.86-16.41a1.07,1.07,0,0,1,1.14,1.49l-4.68,18.59v9.42Z" fill="#3e3a39"/><path d="M180.5,45.34c.18,4.25-3,5.74-6.82,5.38-3.59,0-5.38-1.84-5.38-5.38V24.86c-.18-4.18,2.95-5.69,6.78-5.34,3.59,0,5.38,1.84,5.38,5.34V45.3Zm-2.63-20.48c.46-3.93-7.37-3.92-6.91,0V45.52c-.15,2.51,2,3,4.07,2.8,1.92,0,2.84-.92,2.84-2.8Z" fill="#3e3a39"/><path d="M191.43,49.63l-6.21-14.31v14c.23,1.72-2.86,1.73-2.63,0V21c-.23-1.72,2.86-1.72,2.63,0V34.75c.7-.72,6.31-15.67,7.7-15a1.2,1.2,0,0,1,1.18,1.71l-6.3,13.38,6.13,13.87A1.33,1.33,0,0,1,191.43,49.63Z" fill="#3e3a39"/><path d="M207.1,45.34c.79,7.4-12.95,7.4-12.16,0V24.86c-.17-4.16,2.91-5.69,6.74-5.34,3.59,0,5.38,1.84,5.38,5.34V45.3Zm-2.63-20.48c.46-3.93-7.37-3.92-6.91,0V45.52c-.16,2.54,2,3,4.12,2.8,1.93,0,2.84-.92,2.84-2.8V24.86Z" fill="#3e3a39"/><path d="M211.83,33.61h6.74c.42-.89-1-14.18,1-13.87.83-.15,1.79.31,1.66,1.27-.49.6,1.16,30.45-1,29.54-.83.15-1.79-.31-1.66-1.27V36.06h-6.74V49.28c.23,1.72-2.86,1.73-2.63,0V21c-.23-1.55,2.45-1.79,2.63-.3C211.84,21,211.83,33.32,211.83,33.61Z" fill="#3e3a39"/><path d="M234.1,50.55c-1.86.28-1.47-4.92-1.92-5.86h-6.5c-.44.91-.07,6.16-1.92,5.86-3.65,1.91,4.05-29.23,3.38-29.69.06-1.73,3.43-1.73,3.54,0,0,0,4.67,28.3,4.68,28.31a1.12,1.12,0,0,1-1.32,1.4Zm-2.32-8.31L228.94,24l-2.89,18.29Z" fill="#3e3a39"/><path d="M239.18,44.33c-.31,1,.85,6.16-1,6.22a1.22,1.22,0,0,1-1.55-1.22V21.18c-.29-2,4-2.06,4.06-.27l4.81,25,4.81-25c.1-1.81,4.31-1.68,4,.27-.67.64,1.58,31-1.31,29.37-2.3.33-.91-5.17-1.27-6.27l.09-19.87c-6.61,35.56-6.31,34.7-12.82-.08Z" fill="#3e3a39"/><path d="M267.31,50.55c-1.85.28-1.47-4.92-1.93-5.86H258.9c-.44.91-.07,6.16-1.92,5.86-3.67,1.93,4-29.22,3.37-29.69.06-1.75,3.52-1.74,3.58,0l4.68,28.27a1.12,1.12,0,0,1-1.31,1.4ZM265,42.24,262.15,24l-2.89,18.29Z" fill="#3e3a39"/></svg>