<svg xmlns="http://www.w3.org/2000/svg" width="147.18mm" height="32.24mm" viewBox="0 0 417.2 91.39"><path d="M13.8,90.81a1.82,1.82,0,0,1-2.54,0,1.77,1.77,0,0,1-.52-1.28,1.72,1.72,0,0,1,.56-1.31,1.77,1.77,0,0,1,1.24-.49,1.73,1.73,0,0,1,1.27.53,1.69,1.69,0,0,1,.53,1.27A1.73,1.73,0,0,1,13.8,90.81Zm-2.31-2.33a1.5,1.5,0,0,0,0,2.1,1.47,1.47,0,0,0,2.1,0A1.46,1.46,0,0,0,14,89.52a1.47,1.47,0,0,0-2.53-1Zm1.63,1.94a1,1,0,0,1-.53.17,1,1,0,0,1-.71-.3,1,1,0,0,1-.3-.77,1.11,1.11,0,0,1,.26-.75.84.84,0,0,1,.7-.31,1,1,0,0,1,.5.11.87.87,0,0,1,.42.67H13a.37.37,0,0,0-.17-.29.45.45,0,0,0-.25-.07.41.41,0,0,0-.33.16.8.8,0,0,0-.13.51.71.71,0,0,0,.14.48.47.47,0,0,0,.35.15.33.33,0,0,0,.27-.1.39.39,0,0,0,.12-.25h.45A.89.89,0,0,1,13.12,90.42Z" fill="#231815"/><path d="M16.09,91.32h-.7V88.41h-.33v-.62h1Z" fill="#231815"/><path d="M17.16,91.31c.14-.26.27-.51.39-.77s.19-.38.28-.57a.74.74,0,0,1-.4.13.57.57,0,0,1-.27-.06,1,1,0,0,1-.47-1,2.12,2.12,0,0,1,.06-.49,1.15,1.15,0,0,1,.32-.59.8.8,0,0,1,.58-.21.91.91,0,0,1,.61.2A1.29,1.29,0,0,1,18.63,89a2.51,2.51,0,0,1-.08.67,9.81,9.81,0,0,1-.72,1.63Zm.5-1.82c.17,0,.26-.24.26-.56,0-.15,0-.53-.26-.53s-.27.25-.27.57.07.44.19.5Z" fill="#231815"/><path d="M19.55,91.31l.39-.77c.1-.19.18-.38.27-.57a.71.71,0,0,1-.4.13.57.57,0,0,1-.27-.06,1,1,0,0,1-.47-1,2.12,2.12,0,0,1,.06-.49,1.15,1.15,0,0,1,.32-.59.81.81,0,0,1,.59-.21.88.88,0,0,1,.6.2A1.26,1.26,0,0,1,21,89a2.64,2.64,0,0,1-.09.67,9.54,9.54,0,0,1-.71,1.63ZM20,89.49c.18,0,.26-.24.26-.56,0-.15,0-.53-.26-.53s-.26.25-.26.57.06.44.18.5A.29.29,0,0,0,20,89.49Z" fill="#231815"/><path d="M21.93,91.31c.14-.26.27-.51.39-.77s.18-.38.27-.57a.67.67,0,0,1-.39.13.57.57,0,0,1-.27-.06,1,1,0,0,1-.47-1,2.12,2.12,0,0,1,.06-.49,1.15,1.15,0,0,1,.32-.59.79.79,0,0,1,.58-.21.87.87,0,0,1,.6.2A1.26,1.26,0,0,1,23.4,89a2.64,2.64,0,0,1-.09.67,9.54,9.54,0,0,1-.71,1.63Zm.49-1.82c.18,0,.27-.24.27-.56,0-.15,0-.53-.26-.53s-.27.25-.27.57.07.44.18.5S22.38,89.49,22.42,89.49Z" fill="#231815"/><path d="M26.6,89.62v1.7h-.74v-1.7l-.78-1.83h.74L26.23,89l.42-1.18h.73Z" fill="#231815"/><path d="M27.25,90.91a.44.44,0,1,1,.43.44.42.42,0,0,1-.3-.13A.43.43,0,0,1,27.25,90.91Z" fill="#231815"/><path d="M30.32,88.46h-.71v.72h.66v.68h-.66v1.46h-.74V87.79h1.45Z" fill="#231815"/><path d="M30.51,90.91a.43.43,0,0,1,.43-.43.44.44,0,0,1,0,.87.45.45,0,0,1-.31-.13A.43.43,0,0,1,30.51,90.91Z" fill="#231815"/><path d="M33.53,88.61a.84.84,0,0,0-.51-.22.3.3,0,0,0-.21.08.35.35,0,0,0-.1.26.52.52,0,0,0,.06.25,4.27,4.27,0,0,0,.5.52,1,1,0,0,1,.36.78,1.5,1.5,0,0,1-.06.42,1,1,0,0,1-.92.67,1.32,1.32,0,0,1-.64-.19v-.72a1,1,0,0,0,.56.24.54.54,0,0,0,.18,0,.32.32,0,0,0,.18-.3.49.49,0,0,0,0-.14,1.3,1.3,0,0,0-.28-.34c-.11-.1-.23-.2-.33-.31A1,1,0,0,1,32,88.8a1.14,1.14,0,0,1,.41-.94.88.88,0,0,1,.47-.13,1.28,1.28,0,0,1,.66.2Z" fill="#231815"/><path d="M35,87.79a1.25,1.25,0,0,1,.8.16.9.9,0,0,1,.37.85,1.1,1.1,0,0,1-.24.76.84.84,0,0,1-.37.23,1.6,1.6,0,0,1-.56.06v1.47h-.74V87.79Zm0,1.51a.5.5,0,0,0,.23,0c.28-.08.28-.4.28-.46a.73.73,0,0,0,0-.22.41.41,0,0,0-.48-.26Z" fill="#231815"/><path d="M38.31,87.82a1.51,1.51,0,0,1,.3.25,2.13,2.13,0,0,1,.44,1.45,1.9,1.9,0,0,1-.72,1.74A1.12,1.12,0,0,1,37,91a2,2,0,0,1-.42-1.4A2.35,2.35,0,0,1,37.11,88a1,1,0,0,1,.67-.25A1,1,0,0,1,38.31,87.82Zm-.81.71a2.29,2.29,0,0,0-.19,1.1,1.84,1.84,0,0,0,.21,1,.39.39,0,0,0,.29.14.28.28,0,0,0,.13,0,.55.55,0,0,0,.23-.32,3.27,3.27,0,0,0,.11-.91,2.41,2.41,0,0,0-.13-.86.39.39,0,0,0-.34-.27A.34.34,0,0,0,37.5,88.53Z" fill="#231815"/><path d="M40.31,87.79a1.26,1.26,0,0,1,1.15.4,1.11,1.11,0,0,1-.13,1.35,1.26,1.26,0,0,1-.18.14l.64,1.64H41l-.65-1.83v1.83h-.74V87.79Zm.08,1.49a.64.64,0,0,0,.27,0c.24-.08.24-.38.24-.43a.52.52,0,0,0-.06-.26c-.09-.18-.27-.19-.45-.2Z" fill="#231815"/><path d="M43.77,88.46h-.53v2.86H42.5V88.46H42v-.67h1.8Z" fill="#231815"/><path d="M45.78,88.61a.84.84,0,0,0-.51-.22.3.3,0,0,0-.21.08.35.35,0,0,0-.1.26A.52.52,0,0,0,45,89a4.27,4.27,0,0,0,.5.52,1,1,0,0,1,.36.78,1.5,1.5,0,0,1-.06.42,1,1,0,0,1-.92.67,1.32,1.32,0,0,1-.64-.19v-.72a1,1,0,0,0,.56.24.54.54,0,0,0,.18,0,.32.32,0,0,0,.18-.3.49.49,0,0,0,0-.14,1.3,1.3,0,0,0-.28-.34c-.11-.1-.23-.2-.33-.31a1,1,0,0,1-.31-.78,1.14,1.14,0,0,1,.41-.94.88.88,0,0,1,.47-.13,1.28,1.28,0,0,1,.66.2Z" fill="#231815"/><path d="M49.53,88.47a1.1,1.1,0,0,0-.27,0,.8.8,0,0,0-.57.25,1.26,1.26,0,0,0-.31.88,1.17,1.17,0,0,0,.32.85.75.75,0,0,0,.59.28.51.51,0,0,0,.24-.06v.68a1.18,1.18,0,0,1-.35,0A1.37,1.37,0,0,1,48,90.67a1.91,1.91,0,0,1-.31-1.1,2,2,0,0,1,.26-1.07,1.43,1.43,0,0,1,1.24-.76.94.94,0,0,1,.39.07Z" fill="#231815"/><path d="M50.18,90.91a.43.43,0,0,1,.43-.43.44.44,0,0,1,0,.87.45.45,0,0,1-.31-.13A.43.43,0,0,1,50.18,90.91Z" fill="#231815"/><path d="M61.81,22.31V6.91l-1.06,0-.53,0a2.36,2.36,0,0,1-2.23-2l-.06-.42-.12-.84L57,3.41l-.42-.05L31.82,0a9.88,9.88,0,0,0-1.63,0L5.44,3.34,5,3.39l-.85.11-.11.86L4,4.78A2.39,2.39,0,0,1,1.67,6.84H0V22.31c0,.25.08,2.38.08,2.38A64.93,64.93,0,0,0,7.57,54.87C13,65,20.89,72.44,30.33,76.28l.21.08.42.17.42-.17.21-.08C41,72.44,48.91,65,54.36,54.87a65,65,0,0,0,7.48-30.18v-.56S61.81,22.56,61.81,22.31Z" fill="#fff"/><path d="M60.17,24.13H1.2v.56A63.75,63.75,0,0,0,8.56,54.34c5.32,9.93,13,17.16,22.19,20.9l.21.08.21-.08c9.2-3.74,16.87-11,22.2-20.9a63.86,63.86,0,0,0,7.35-29.65v-.56Z" fill="#00a0e9"/><path d="M52.39,53.81C47.23,63.44,39.82,70.46,31,74.12,22.1,70.46,14.69,63.44,9.53,53.81A62.63,62.63,0,0,1,2.32,25.24H59.6A62.63,62.63,0,0,1,52.39,53.81Z" fill="#003686"/><path d="M56.3,28.69l-.25-.37-.59-.44-.1.05-.08.82,0,.33a9.16,9.16,0,0,1-.25,2.21,6.12,6.12,0,0,1-1.44,2.27,9.09,9.09,0,0,0-2.16,3.64c-.58,2-.87,4.53-.23,5.61l0,.08-.45-.62-.33.78a6.7,6.7,0,0,1-1,1.37A10.24,10.24,0,0,1,47,46a7.29,7.29,0,0,0-1,.58,11.64,11.64,0,0,1,.8-2,5,5,0,0,1,.69-1.05,10.12,10.12,0,0,0,2-2.92,8.72,8.72,0,0,0,.68-3.85c0-.4,0-1,.08-1.72.16-2.63.37-6.23-.66-7.78l-.69-.54-.18.94a1,1,0,0,1-.07.52,3.36,3.36,0,0,0-.13.7A14.24,14.24,0,0,1,44.4,39.1a28.62,28.62,0,0,1-4,3.09c-.56.38-1.14.78-1.73,1.2a27.76,27.76,0,0,0-4.5,4.09h0c.29-.9,1.39-3.91,3.84-4.88l1.74-.69-1.86-.24a4.43,4.43,0,0,0-2.53.21,2.15,2.15,0,0,1,.35-.33l0,0h0a6,6,0,0,1,1.64-.89l2.57-1-2.76.08a13.41,13.41,0,0,0-6.06,1.68,2.17,2.17,0,0,0-.61-.44,2.74,2.74,0,0,0-2.21-.18c-.62.23-1.11.27-1.34.09s-.24-.58-.21-.9a2.35,2.35,0,0,1,.63-.9,1.27,1.27,0,0,0,.39-.51,2.36,2.36,0,0,0,0-.28l-.33,0-.41,0c-2.81,1.15-2.93,2.57-2.83,3.36a2.35,2.35,0,0,0,.32.91l0,.62a2.22,2.22,0,0,0,1,1.91,2.19,2.19,0,0,0,2,.1,2.55,2.55,0,0,0,.56-.32,9.49,9.49,0,0,0-.39,2.64,27.1,27.1,0,0,0-4.48-4.06c-.58-.42-1.17-.82-1.73-1.2a28.53,28.53,0,0,1-4-3.09,14.21,14.21,0,0,1-4.15-10.24,2.81,2.81,0,0,0-.13-.7,1.06,1.06,0,0,1-.07-.52l-.21-1-.65.59c-1,1.55-.82,5.15-.66,7.78,0,.71.08,1.32.07,1.71a9,9,0,0,0,.67,3.84,10.14,10.14,0,0,0,2,2.94,5.45,5.45,0,0,1,.69,1.05,11.53,11.53,0,0,1,.79,2,6.75,6.75,0,0,0-1-.58,10.39,10.39,0,0,1-2.45-1.55,6.7,6.7,0,0,1-1-1.37l-.33-.79-.46.63,0-.08c.64-1.08.34-3.59-.24-5.61a9.09,9.09,0,0,0-2.16-3.64,6.1,6.1,0,0,1-1.43-2.27,8.67,8.67,0,0,1-.25-2.21l0-.33L6.6,27.61l-.17.13-.56.58-.25.37c-.7,1.07-1.94,4-1.26,6.36a6.54,6.54,0,0,0,2.84,3.4,4.76,4.76,0,0,1,2,2.23l.58,2,.31,1.07v0a1.91,1.91,0,0,0-.18.59,8.72,8.72,0,0,0,1.22,4.53,9.76,9.76,0,0,0,.66.89H11.7l-.09.44a7.14,7.14,0,0,0,1,5.06l.08.1a6.38,6.38,0,0,0,1.16,1.42S15,58,16.25,59q.32.26.66.57a20.92,20.92,0,0,0,4.14,2.94l.05,0,.06,0a2.23,2.23,0,0,0,2.43-.49,1.49,1.49,0,0,0,.22-1.24,2.25,2.25,0,0,1,1.06.88l.57,1.15.49,1,.39-1c.31-.83-.22-2.4-.76-3.49a5.77,5.77,0,0,0-1.74-2,4.09,4.09,0,0,1-.44-.37,3.69,3.69,0,0,0,1.16-.06l.21,0,1-.15L25,56a4.92,4.92,0,0,1-.82-1,6.66,6.66,0,0,1-.76-3.51,6.62,6.62,0,0,0-.57-3.09,9.63,9.63,0,0,1,1.77,2.07,6.83,6.83,0,0,1,1,3.3,5.89,5.89,0,0,0,.73,2.74c.23.37.6,1,.92,1.41v0h0c.13.16.27.35.4.54l0,0h0l.05.07a16.43,16.43,0,0,1,1,1.79,3.46,3.46,0,0,1,.21,1,3.4,3.4,0,0,1-.55,1L27.9,63l-.48.6c-.32.32-.62.68-1,1.06a9.43,9.43,0,0,1-1.82,1.81l-1.09.73,1.31.15a5.39,5.39,0,0,0,1.88-.14,1.81,1.81,0,0,1-.62.36c-.57.24-.68.53-.66.7s.29.41.62.51a2.83,2.83,0,0,0,1.84,0,4.6,4.6,0,0,1-.6,1.24l-.19.24,0,.52a1.89,1.89,0,0,1-.07.81l1-.46a6.82,6.82,0,0,0,1.82-1.28,13.15,13.15,0,0,0,.56,2.62L31,73.59l.46-1.09A2.84,2.84,0,0,1,31.7,72a3.35,3.35,0,0,0,.39-.72v-.07c.06-.37.11-.73.14-1.09a7.28,7.28,0,0,0,1.56,1l.84.5v-.38c.06-.12-.09-.46,0-.61l0-.55-.19-.24A3.54,3.54,0,0,1,34,68.8a2.35,2.35,0,0,0,2-.23s.52-.26.52-.46-.35-.41-.92-.7h0a2.59,2.59,0,0,1-.38-.17,5.35,5.35,0,0,0,1.87.14l1.31-.15-1.1-.73a10,10,0,0,1-1.82-1.81c-.32-.38-.63-.74-.94-1.06l-.48-.6-.48-.61A3.68,3.68,0,0,1,33,61.29a2.81,2.81,0,0,1,.21-.91,16.43,16.43,0,0,1,1-1.79l0-.06h0v0l.4-.54h0v0c.31-.46.68-1,.91-1.41a6,6,0,0,0,.74-2.74,6.83,6.83,0,0,1,1-3.3,9.35,9.35,0,0,1,1.77-2.07,6.76,6.76,0,0,0-.58,3.09A6.56,6.56,0,0,1,37.74,55a5.34,5.34,0,0,1-.83,1l-.69.68,1,.15.21,0a3.68,3.68,0,0,0,1.16.06c-.14.13-.29.25-.44.37a5.78,5.78,0,0,0-1.75,2c-.54,1.09-1.06,2.66-.76,3.49l.39,1,.5-1,.57-1.15a2.22,2.22,0,0,1,1-.88,1.53,1.53,0,0,0,.22,1.24,2.25,2.25,0,0,0,2.44.49l0,0,.06,0A20.8,20.8,0,0,0,45,59.58l.66-.57c1.24-1,2.4-2.19,2.43-2.23a5.92,5.92,0,0,0,1.17-1.43l.09-.1a7.14,7.14,0,0,0,1-5.06l-.09-.44H50.1c.23-.28.45-.58.66-.89A8.71,8.71,0,0,0,52,44.34a1.91,1.91,0,0,0-.18-.59l0,0,.31-1.07.58-2a4.71,4.71,0,0,1,2-2.23,6.58,6.58,0,0,0,2.84-3.4C58.24,32.71,57,29.76,56.3,28.69ZM41.37,52.61a8.64,8.64,0,0,1-.44,3.89,6.49,6.49,0,0,0-.28-1.41A11.44,11.44,0,0,0,41.37,52.61Zm7.14-1.18.29-.25a5.7,5.7,0,0,1-.32.48A4.32,4.32,0,0,1,47,52.86ZM26.28,43.81c-.07,0-.23,0-.5-.27a1.43,1.43,0,0,0,.28.07,2.59,2.59,0,0,0,.84,0A1.17,1.17,0,0,1,26.28,43.81Zm-11.38,9a4.28,4.28,0,0,1-1.45-1.2,3.08,3.08,0,0,1-.32-.48l.28.25Zm5.66-.25a10.88,10.88,0,0,0,.71,2.48A7.14,7.14,0,0,0,21,56.5,8.76,8.76,0,0,1,20.56,52.61Z" fill="#fff"/><path d="M51,43.17,50.92,43l-.08.17a7.3,7.3,0,0,1-1.09,1.5A10.66,10.66,0,0,1,47.2,46.3a4.43,4.43,0,0,0-1.08.64,8.31,8.31,0,0,0-.72,1.13,8,8,0,0,1,1.06-3.68,5.51,5.51,0,0,1,.74-1.13,9.89,9.89,0,0,0,2-2.82,8.45,8.45,0,0,0,.65-3.7c0-.41,0-1,.07-1.74.15-2.43.37-6.11-.59-7.55l-.2.09a1.32,1.32,0,0,1-.07.73,2.28,2.28,0,0,0-.11.6,14.65,14.65,0,0,1-4.26,10.5,29.17,29.17,0,0,1-4.07,3.13c-.56.38-1.14.77-1.71,1.19a26.33,26.33,0,0,0-5,4.69l-.09.11c0-.28,0-.6,0-1a.75.75,0,0,1,0-.16c.29-.94,1.45-4.09,4.05-5.12l.4-.16-.43,0a3.66,3.66,0,0,0-3.19.69l-.35.23a3.84,3.84,0,0,1,1.18-1.71,6.26,6.26,0,0,1,1.76-1l0-.21a13,13,0,0,0-6.05,1.73A2.51,2.51,0,0,0,28.4,41a1.77,1.77,0,0,1-1.64.05,1.26,1.26,0,0,1-.33-1.18c0-.34.48-.74.77-1s.33-.3.32-.4a.13.13,0,0,0-.06-.1l-.07,0-.06,0,0,0c-2.6,1.07-2.84,2.41-2.75,3.11A2.07,2.07,0,0,0,26.1,43.3a3.55,3.55,0,0,0,2.21-.65A2.65,2.65,0,0,1,30,42.1l.59.08a5.87,5.87,0,0,0-.63.54,2.27,2.27,0,0,0-1.59.13,3.14,3.14,0,0,0-.88.66,1.71,1.71,0,0,1-1.12.62c-.42,0-.82-.29-1.28-1.12L25,42.84l-.1.17,0,0,0,0v0a1.93,1.93,0,0,0,.85,1.68,2,2,0,0,0,1.79.12,3,3,0,0,0,1.1-.94,2,2,0,0,1,.91-.74h0l-.17.23a5.92,5.92,0,0,0-.75,1.25,8.76,8.76,0,0,0-.46,2.81,4.72,4.72,0,0,0,0,1l-.08-.11a26.33,26.33,0,0,0-5-4.69c-.58-.42-1.16-.81-1.72-1.19a29.08,29.08,0,0,1-4.06-3.13A14.57,14.57,0,0,1,13,28.87a2.28,2.28,0,0,0-.12-.6,1.31,1.31,0,0,1-.06-.73l-.21-.09c-1,1.44-.74,5.12-.59,7.55,0,.71.08,1.33.08,1.74a8.45,8.45,0,0,0,.64,3.7,10.12,10.12,0,0,0,2,2.83,5.18,5.18,0,0,1,.74,1.12,8.29,8.29,0,0,1,1.06,3.68,8.38,8.38,0,0,0-.73-1.13,4.12,4.12,0,0,0-1.07-.64,10.46,10.46,0,0,1-2.55-1.61,7.43,7.43,0,0,1-1.1-1.5L11,43l-.12.15a3.45,3.45,0,0,0-.57,1.21,8.38,8.38,0,0,0,1.16,4.28,13.7,13.7,0,0,0,2.19,2.51s2.13,2,2.65,2.53a1.79,1.79,0,0,1-.61-.09,5.26,5.26,0,0,1-2.56-1.72,7,7,0,0,1-.87-1.63l0-.07H12l0,.1A6.73,6.73,0,0,0,12.86,55l.09.11h0a5.86,5.86,0,0,0,1.11,1.38s1.2,1.2,2.42,2.21l.67.58a20.58,20.58,0,0,0,4.06,2.89h0c1,.23,1.71.11,2-.35.22-.29.34-.83-.15-1.78l.51.27a3.08,3.08,0,0,1,1.55,1.2l.57,1.15.11.23.09-.24c.25-.66-.21-2.12-.74-3.19a5.46,5.46,0,0,0-1.65-1.9,3.76,3.76,0,0,1-1.15-1.26c-.05-.1-.11-.24-.17-.4a2.16,2.16,0,0,0,2.22.57l.21,0,.22,0-.16-.16a5.4,5.4,0,0,1-.88-1.09,7,7,0,0,1-.81-3.7,5.87,5.87,0,0,0-.62-3.08L21.59,47A10.07,10.07,0,0,1,25,50.27a7.29,7.29,0,0,1,1,3.47,5.55,5.55,0,0,0,.68,2.57c.23.37.59.95.9,1.4a6.71,6.71,0,0,1,.43.58h0l0,0h0l0,0a18.25,18.25,0,0,1,1,1.83,3.58,3.58,0,0,1,.26,1.18,3.73,3.73,0,0,1-.64,1.22l-.49.63-.49.62c-.31.31-.62.67-.94,1a10.22,10.22,0,0,1-1.9,1.88l-.25.17.3,0a7.41,7.41,0,0,0,3-.48l.51-.15a5.19,5.19,0,0,1-1.93,1.38h0c-.16.08-.43.23-.43.39a.16.16,0,0,0,.1.14h0a2.36,2.36,0,0,0,2.38-.06,6.13,6.13,0,0,1-.89,2.07l0,.06,0,.06a.79.79,0,0,1,0,.2.63.63,0,0,0,0,.36l.05.1.1,0A7.3,7.3,0,0,0,30.23,69a13.9,13.9,0,0,0,.63,3.42l.1.31.11-.31a2.39,2.39,0,0,1,.32-.58,2.63,2.63,0,0,0,.35-.63h0a12.32,12.32,0,0,0,.18-1.89A7.74,7.74,0,0,0,34.18,71l.1,0,0-.09a.53.53,0,0,0,0-.35.65.65,0,0,1,0-.18l0-.06-.05-.06a6.49,6.49,0,0,1-.89-2.09,2.38,2.38,0,0,0,2.42.08h0a.15.15,0,0,0,.09-.14c0-.16-.27-.31-.43-.39h0a5.21,5.21,0,0,1-1.92-1.37l.5.14A7.41,7.41,0,0,0,37,67l.3,0-.25-.17a9.92,9.92,0,0,1-1.9-1.88c-.32-.38-.63-.74-.94-1l-.49-.62-.5-.63a3.47,3.47,0,0,1-.64-1.29,3.56,3.56,0,0,1,.24-1.11,16.39,16.39,0,0,1,1-1.83l0,0h0l0,0h0a7,7,0,0,1,.42-.57c.31-.47.68-1,.9-1.41A5.56,5.56,0,0,0,36,53.74a7.07,7.07,0,0,1,1-3.47A10,10,0,0,1,40.34,47l-.86,1.4a5.87,5.87,0,0,0-.61,3.08,7,7,0,0,1-.81,3.7,5.47,5.47,0,0,1-.89,1.09l-.16.16.22,0,.22,0a2.15,2.15,0,0,0,2.21-.57,3.31,3.31,0,0,1-.16.4,3.69,3.69,0,0,1-1.16,1.26,5.44,5.44,0,0,0-1.64,1.9c-.53,1.07-1,2.53-.75,3.19l.09.24.11-.23.57-1.15a3.08,3.08,0,0,1,1.55-1.2c.17-.09.35-.17.52-.27-.5,1-.37,1.49-.16,1.78.34.46,1.08.58,2,.35h0a20.4,20.4,0,0,0,4.07-2.89c.23-.21.45-.4.67-.58,1.22-1,2.4-2.2,2.41-2.21A5.9,5.9,0,0,0,49,55.13h0a.39.39,0,0,0,.08-.1A6.73,6.73,0,0,0,50,50.26l0-.1h-.26l0,.08a7.28,7.28,0,0,1-.88,1.62,5.17,5.17,0,0,1-2.56,1.72,1.79,1.79,0,0,1-.61.09l2.66-2.54a13.31,13.31,0,0,0,2.19-2.5,8.37,8.37,0,0,0,1.15-4.28A3.27,3.27,0,0,0,51,43.17Zm-29.55,15c-2-2.85-1.25-6.4-.95-7.49l.17.37c0,.06,0,.2.05.37a13.16,13.16,0,0,0,.92,3.59A5.76,5.76,0,0,0,21.48,58.22Zm19,0a5.67,5.67,0,0,0-.19-3.16,12.81,12.81,0,0,0,.92-3.59c0-.17,0-.31.06-.37l.16-.37C41.7,51.82,42.46,55.37,40.44,58.22Z" fill="#003686"/><path d="M56,28.9l-.05-.09-.09.05-.11.06-.06,0V29a9.91,9.91,0,0,1-.26,2.37,6.5,6.5,0,0,1-1.52,2.4,8.84,8.84,0,0,0-2.08,3.51c-.54,1.87-.85,4.33-.27,5.31l.13.22.07-.25.58-2a5.07,5.07,0,0,1,2.17-2.42,6.2,6.2,0,0,0,2.7-3.2C57.84,32.76,56.64,29.88,56,28.9Z" fill="#003686"/><path d="M10.09,37.31A8.62,8.62,0,0,0,8,33.8,6.48,6.48,0,0,1,6.5,31.4,9,9,0,0,1,6.24,29V29l-.07,0-.1-.06L6,28.81l-.06.09c-.64,1-1.85,3.86-1.22,6.05a6.22,6.22,0,0,0,2.71,3.2,5,5,0,0,1,2.16,2.42l.58,2,.08.25.13-.22C11,41.64,10.63,39.18,10.09,37.31Z" fill="#003686"/><path d="M57,34.89A6.08,6.08,0,0,1,54.38,38a5.14,5.14,0,0,0-2.25,2.54l-.5,1.73A10,10,0,0,1,52,37.37a8.68,8.68,0,0,1,2-3.43,6.58,6.58,0,0,0,1.56-2.48,10.71,10.71,0,0,0,.28-2.26C56.56,30.28,57.57,32.89,57,34.89ZM9.8,40.51A5.24,5.24,0,0,0,7.55,38a6,6,0,0,1-2.62-3.08c-.58-2,.44-4.61,1.08-5.69a9.54,9.54,0,0,0,.28,2.26,6.56,6.56,0,0,0,1.55,2.48,8.45,8.45,0,0,1,2,3.43,9.83,9.83,0,0,1,.41,4.87ZM30,41.88a2.8,2.8,0,0,0-1.78.57,3.28,3.28,0,0,1-2.07.63,1.87,1.87,0,0,1-1.37-1.56c-.08-.6.12-1.71,2.19-2.69-.31.29-.71.67-.74,1.06a1.46,1.46,0,0,0,.42,1.38,2,2,0,0,0,1.85,0A2.26,2.26,0,0,1,31,42v0l-.14,0ZM29.41,43a2.13,2.13,0,0,0-1,.81,2.86,2.86,0,0,1-1,.87,1.72,1.72,0,0,1-1.58-.1,1.58,1.58,0,0,1-.7-1.08c.42.63.82.89,1.26.83a1.86,1.86,0,0,0,1.24-.67,2.85,2.85,0,0,1,.83-.62,2,2,0,0,1,1.36-.14h0Zm20.86,5.53A14,14,0,0,1,48.11,51l-2.78,2.65-.07.07.06.08c.14.16.43.16,1,0A5.41,5.41,0,0,0,49,52a8.13,8.13,0,0,0,.83-1.48,6.48,6.48,0,0,1-.89,4.33l-.08.1h0a6,6,0,0,1-1.09,1.34s-1.19,1.2-2.41,2.2l-.67.58a20,20,0,0,1-4,2.85c-.85.21-1.52.11-1.8-.26s-.16-1,.34-1.84l0,0,.05,0-.13-.18a7.83,7.83,0,0,1-.94.51,3.21,3.21,0,0,0-1.64,1.3l-.42.84a6.76,6.76,0,0,1,.78-2.7,5.13,5.13,0,0,1,1.59-1.81,4.25,4.25,0,0,0,1.22-1.34,6.14,6.14,0,0,0,.34-1l-.2-.09c-.05.06-.09.13-.14.2a1.92,1.92,0,0,1-2.22.73h0a6.06,6.06,0,0,0,.77-1,7.16,7.16,0,0,0,.84-3.81,5.68,5.68,0,0,1,.58-3l1-1.7.15-.25-.28.09a9.41,9.41,0,0,0-3.79,3.49,7.58,7.58,0,0,0-1,3.56,5.25,5.25,0,0,1-.65,2.48c-.22.36-.58.94-.89,1.39a5.44,5.44,0,0,0-.42.56l-.06.06,0,0v0a17,17,0,0,0-1,1.82,3.68,3.68,0,0,0-.27,1.2v0h0a3.79,3.79,0,0,0,.7,1.39l.49.63.49.63h0c.31.31.62.67.94,1a12.06,12.06,0,0,0,1.69,1.73,8.25,8.25,0,0,1-2.61-.49l-.88-.25-.37-.1.26.28A6.07,6.07,0,0,0,35.38,68a1.05,1.05,0,0,1,.27.17c-.65.44-1.41.18-2.26-.17l-.06,0,0,0-.23-.1.07.23a7.74,7.74,0,0,0,1,2.35.8.8,0,0,0,0,.26.13.13,0,0,0,0,.06,7,7,0,0,1-2.22-1.8l-.2-.27V69a13.39,13.39,0,0,1-.18,2.16,3.68,3.68,0,0,1-.32.57c-.08.11-.16.23-.23.35a14.3,14.3,0,0,1-.55-3.39v-.35l-.19.29a6.76,6.76,0,0,1-2.44,2.15s0-.06,0-.09a.63.63,0,0,0,0-.27,7.47,7.47,0,0,0,1-2.33l.06-.23-.21.1,0,0h0c-.85.36-1.61.62-2.26.18a1.05,1.05,0,0,1,.27-.17,6,6,0,0,0,2.27-1.72l.26-.28-.37.09-.89.26a8.3,8.3,0,0,1-2.61.49,12.61,12.61,0,0,0,1.69-1.73c.32-.38.62-.74.93-1h0l.5-.63.49-.62a4.23,4.23,0,0,0,.68-1.32v0h0a3.76,3.76,0,0,0-.28-1.28,14.09,14.09,0,0,0-1-1.82v0l-.05,0-.05-.06c-.15-.21-.29-.4-.43-.57-.3-.44-.67-1-.89-1.38a5.37,5.37,0,0,1-.65-2.48,7.43,7.43,0,0,0-1-3.56,9.53,9.53,0,0,0-3.79-3.49l-.28-.09.15.25,1,1.7a5.79,5.79,0,0,1,.59,3,7.06,7.06,0,0,0,.84,3.81,5.54,5.54,0,0,0,.77,1h0a1.93,1.93,0,0,1-2.22-.73l-.13-.2-.2.09a6.14,6.14,0,0,0,.34,1,4,4,0,0,0,1.22,1.34A5.22,5.22,0,0,1,25,59.58a7,7,0,0,1,.79,2.7l-.42-.84a3.24,3.24,0,0,0-1.65-1.3,7.72,7.72,0,0,1-.93-.51l-.13.18,0,0,0,0c.5.82.62,1.46.35,1.84s-.95.47-1.81.26a20.27,20.27,0,0,1-4-2.85c-.23-.21-.46-.4-.67-.58-1.21-1-2.39-2.19-2.4-2.2A5.78,5.78,0,0,1,13.14,55h0a.39.39,0,0,1-.08-.1,6.48,6.48,0,0,1-.89-4.33A8.13,8.13,0,0,0,13,52a5.4,5.4,0,0,0,2.66,1.79c.53.14.82.14,1,0l.07-.08-.08-.07L13.82,51a14,14,0,0,1-2.16-2.47,8.37,8.37,0,0,1-1.12-4.14,2.85,2.85,0,0,1,.43-.95,8,8,0,0,0,1,1.4,11.05,11.05,0,0,0,2.61,1.65,4.82,4.82,0,0,1,1,.59,10.08,10.08,0,0,1,.83,1.35l.12.23.09-.24c.3-.86-.31-2.75-1-4.14a6.19,6.19,0,0,0-.78-1.18A9.73,9.73,0,0,1,13,40.36a8.29,8.29,0,0,1-.63-3.62c0-.42,0-1-.08-1.75-.13-2.2-.32-5.42.35-7a3.59,3.59,0,0,0,.08.35,2.33,2.33,0,0,1,.11.55,14.77,14.77,0,0,0,4.32,10.64,28.73,28.73,0,0,0,4.1,3.16c.56.38,1.14.77,1.71,1.19a25.83,25.83,0,0,1,4.95,4.65l.16.21.17.22.27.35-.07-.44a4.8,4.8,0,0,1,0-1.34h0a8.35,8.35,0,0,1,.43-2.72,6.27,6.27,0,0,1,.73-1.21l.25-.34.07-.09,0,0L30,43h0l.06-.06a5.66,5.66,0,0,1,.88-.72l.14-.1h0l.1-.07a12.63,12.63,0,0,1,5.42-1.72,5.7,5.7,0,0,0-1.24.75A3.57,3.57,0,0,0,34,43.18l0,.18.15-.1c.2-.12.39-.25.55-.36a3.26,3.26,0,0,1,2.65-.69c-2.43,1.2-3.53,4.17-3.81,5.09a.74.74,0,0,0-.05.19h0v0c0,.52,0,.93,0,1.29v.33l.2-.26.1-.13.17-.24a26.49,26.49,0,0,1,5-4.64c.57-.42,1.15-.81,1.71-1.19a28.65,28.65,0,0,0,4.09-3.16,14.78,14.78,0,0,0,4.33-10.64,1.92,1.92,0,0,1,.1-.55,3.58,3.58,0,0,0,.09-.35c.67,1.59.48,4.81.35,7,0,.71-.09,1.33-.08,1.75A8.51,8.51,0,0,1,49,40.35,9.9,9.9,0,0,1,47,43.11a5.75,5.75,0,0,0-.78,1.18c-.71,1.39-1.32,3.28-1,4.14l.08.24.12-.23a10.5,10.5,0,0,1,.84-1.35,4.55,4.55,0,0,1,1-.59,11,11,0,0,0,2.6-1.65A8.07,8.07,0,0,0,51,43.45a2.65,2.65,0,0,1,.42.95A8.35,8.35,0,0,1,50.27,48.54ZM20.91,51h0l-.29-.64-.12-.26-.08.27c-.18.54-1.65,5.37,1.52,8.72L22.1,59a2.2,2.2,0,0,1-.23-.37,4.94,4.94,0,0,1,0-3.5v-.05l0,0A12.84,12.84,0,0,1,21,51.43,3,3,0,0,0,20.91,51Zm20.52-.92-.12.25L41,51h0c0,.07,0,.21-.06.39A12.5,12.5,0,0,1,40,55l0,0,0,.05a5,5,0,0,1,0,3.5,2.31,2.31,0,0,1-.24.37l.17.14c3.17-3.35,1.71-8.18,1.53-8.72ZM30.6,44a1.55,1.55,0,0,0,1.36,0c.51-.27.19-1,.19-1Z" fill="#00a0e9"/><path d="M60.16,8a3.48,3.48,0,0,1-3.28-3l-.06-.42-.42,0L31.67,1.15a7.84,7.84,0,0,0-1.37,0L5.59,4.45l-.42,0-.06.42A3.49,3.49,0,0,1,1.67,8H1.12V22.31a1.15,1.15,0,0,0,.35.84,1.18,1.18,0,0,0,.83.35H59.51a1.18,1.18,0,0,0,.83-.35,1.15,1.15,0,0,0,.35-.84V8Z" fill="#00a0e9"/><path d="M59.58,22.31a.08.08,0,0,1-.07.08H2.3l0,0a.08.08,0,0,1,0-.06V9A4.62,4.62,0,0,0,6.14,5.49l1-.13H26.26a4.94,4.94,0,0,1,9.44,0h19l1.14.15A4.59,4.59,0,0,0,59.58,9Z" fill="#003686"/><path d="M58.27,18.54a.61.61,0,0,0-.19-.17v-.14s0-4.91,0-4.91a.69.69,0,0,0-.73-.69c-.44,0-1,0-1.41,0s-1,0-1.43,0a.69.69,0,0,0-.7.47l-.11.35a.68.68,0,0,0,.09.62h0l-.08.12-2.34,3.58-.24.37.77-3a6.66,6.66,0,0,1,.2-.7.43.43,0,0,1,0-.05.72.72,0,0,0,.54-.46l.11-.36a.7.7,0,0,0-.11-.64.67.67,0,0,0-.59-.26c-.43,0-.81,0-1.18,0s-.76,0-1.15,0h-.05a.67.67,0,0,0-.63.31L48,14.63V13.31a.68.68,0,0,0-.22-.5.67.67,0,0,0-.52-.18h-.06c-.4,0-.78,0-1.19,0s-.77,0-1.17,0a.73.73,0,0,0-.73.47l-.11.35a.66.66,0,0,0,.1.62.24.24,0,0,0,.06.08l-.06.18-.08.22-1.37,3.6,0,.11h-.08v0s.05-4.91.05-4.91a.71.71,0,0,0-.21-.5.69.69,0,0,0-.52-.19c-.45,0-1,0-1.41,0s-1,0-1.43,0a.69.69,0,0,0-.7.47l-.12.35a.69.69,0,0,0,.1.62h0s0,.07-.08.12l-2.33,3.58c-.06.1-.24.37-.33.48h-.08c.35-1.06,1.14-3.45,1.3-3.91a.69.69,0,0,0,.58-.47l.12-.36a.71.71,0,0,0-.11-.64.67.67,0,0,0-.59-.26c-.44,0-.9,0-1.35,0s-.91,0-1.34,0a.77.77,0,0,0-.37.07.69.69,0,0,0-.35-.07c-.45,0-.88,0-1.39,0s-.89,0-1.3,0a.7.7,0,0,0-.71.47l-.11.35a.68.68,0,0,0,.09.62.52.52,0,0,0,.1.11l-.27.8a2.78,2.78,0,0,0-.5-1.39,2.86,2.86,0,0,0-2.41-1.11,5.16,5.16,0,0,0-3.16,1.23l.06-.18a.67.67,0,0,0-.12-.64.69.69,0,0,0-.6-.26c-.31,0-.66,0-1,0s-.73,0-1.11,0a.7.7,0,0,0-.4.09.66.66,0,0,0-.39-.09c-.45,0-.87,0-1.37,0s-.89,0-1.31,0a.69.69,0,0,0-.7.47l-.12.35a.69.69,0,0,0,.1.62l.09.11c-.06.2-.16.48-.26.8a2.69,2.69,0,0,0-2.91-2.5,5,5,0,0,0-2.85,1,.78.78,0,0,0,.12-.22l.13-.4A.67.67,0,0,0,11,12.2a.69.69,0,0,0-.6-.26,9,9,0,0,1-1,.06,8.1,8.1,0,0,1-1-.06.71.71,0,0,0-.57.22.7.7,0,0,0-.54-.22c-.48,0-1,.06-1.47.06s-1,0-1.58-.06a.7.7,0,0,0-.7.48l-.13.39a.68.68,0,0,0,.09.62.67.67,0,0,0,.28.22c0,.49.22,2.94.27,3.55l-.34,1h0a.69.69,0,0,0-.66.48l-.13.39a.7.7,0,0,0,.11.64.71.71,0,0,0,.59.27c.5,0,1-.06,1.51-.06s1.06,0,1.54.06a.7.7,0,0,0,.71-.48l.12-.39a.68.68,0,0,0-.09-.62.62.62,0,0,0-.14-.14c.08-.27.2-.62.26-.8L9.12,15.4a3.57,3.57,0,0,0-.29.67A3.21,3.21,0,0,0,9.13,19a2.86,2.86,0,0,0,2.41,1.13,5.17,5.17,0,0,0,3.36-1.37l-.1.31a.7.7,0,0,0,.11.64.68.68,0,0,0,.59.27c.44,0,.9,0,1.35,0s.91,0,1.34,0a.7.7,0,0,0,.47-.15.68.68,0,0,0,.47.15c.44,0,.84,0,1.24,0s.63,0,1,0a.69.69,0,0,0,.71-.47l.12-.36a.7.7,0,0,0,0-.38,1.76,1.76,0,0,0,.14.23,2.85,2.85,0,0,0,2.4,1.13,5.2,5.2,0,0,0,3.37-1.37l-.11.31a.7.7,0,0,0,.71.91c.43,0,.9,0,1.34,0s.92,0,1.35,0a.64.64,0,0,0,.36-.08.64.64,0,0,0,.36.08c.45,0,.87,0,1.38,0s.89,0,1.31,0a.62.62,0,0,0,.38-.09.66.66,0,0,0,.39.09h0c.33,0,.64,0,.93,0s.65,0,.94,0h0a.7.7,0,0,0,.72-.47l.12-.36a.69.69,0,0,0-.1-.62l0,0,.13-.22H39a.73.73,0,0,0-.45.44l-.11.35a.7.7,0,0,0,.11.64.71.71,0,0,0,.59.27c.48,0,.91,0,1.37,0s1,0,1.46,0a.56.56,0,0,0,.29,0,.63.63,0,0,0,.3,0,8.43,8.43,0,0,1,.86,0,8.76,8.76,0,0,1,.91,0,.69.69,0,0,0,.63-.3.71.71,0,0,0,.58.3H46.7a.69.69,0,0,0,.55-.27h0a.71.71,0,0,0,.59.27h0c.46,0,.9,0,1.33,0s.84,0,1.27,0a.6.6,0,0,0,.3,0,.67.67,0,0,0,.31,0c.33,0,.64,0,.93,0s.65,0,.94,0h0a.7.7,0,0,0,.72-.47l.11-.36a.69.69,0,0,0-.09-.62l0,0a2.53,2.53,0,0,1,.13-.22h.73a.7.7,0,0,0-.45.44l-.12.35a.7.7,0,0,0,.11.64.71.71,0,0,0,.59.27c.48,0,.91,0,1.38,0s1,0,1.46,0a.7.7,0,0,0,.7-.47l.11-.36A.69.69,0,0,0,58.27,18.54Zm-32.91-.85a4,4,0,0,1,.22-1.85c.17-.52.45-.89.67-.92a3.23,3.23,0,0,1-.17,1.72C25.92,17.1,25.67,17.65,25.36,17.69Zm-13.19,0a3.75,3.75,0,0,1,.22-1.85c.17-.52.44-.89.67-.92a3.38,3.38,0,0,1-.18,1.72C12.73,17.1,12.48,17.65,12.17,17.69Z" fill="#00a0e9"/><path d="M4.21,12.63c.45,0,1,.07,1.62.07s1,0,1.51-.07l-.13.4c-.23,0-.35.06-.4.22a2.39,2.39,0,0,0,0,.74l.06,1.78h0L8,14.07a3.39,3.39,0,0,0,.43-.73c.08-.25,0-.31-.24-.31l.14-.4a8.27,8.27,0,0,0,1.05.07,7.91,7.91,0,0,0,1-.07l-.13.41c-.15,0-.32,0-.61.41l-2.77,3.8-.4,1.21c-.13.38.08.45.34.45l-.13.4c-.47,0-1-.07-1.59-.07s-1.06,0-1.55.07l.13-.4a.63.63,0,0,0,.66-.45l.39-1.18-.29-3.76c0-.44-.08-.49-.4-.49Z" fill="#fff"/><path d="M13.68,13.17c1.75,0,2.65,1.37,2,3.21a4.69,4.69,0,0,1-4.18,3.07c-1.69,0-2.65-1.36-2-3.16A4.77,4.77,0,0,1,13.68,13.17Zm-1.55,5.22c.8,0,1.19-.89,1.41-1.53.26-.81.59-2.64-.46-2.64-.72,0-1.16.82-1.35,1.4C11.46,16.44,11.08,18.39,12.13,18.39Z" fill="#fff"/><path d="M17.62,14.06c.12-.35-.11-.39-.3-.39l.12-.35c.41,0,.87,0,1.35,0s1,0,1.42,0l-.11.35a.51.51,0,0,0-.56.39l-.75,2.28h0A19.3,19.3,0,0,0,21,13.94c.06-.2-.07-.27-.23-.27l.12-.35c.39,0,.78,0,1.18,0s.7,0,1.05,0l-.12.35a.9.9,0,0,0-.62.35l-1.72,1.72c.17.87.29,1.75.39,2.66,0,.41.14.55.48.55l-.12.35c-.33,0-.68-.06-1-.06s-.85,0-1.28.06a19.41,19.41,0,0,0-.3-2.91h0l-.72,2.17c-.12.35.09.39.3.39l-.11.35c-.44,0-.86-.06-1.39-.06s-1,0-1.39.06l.11-.35a.52.52,0,0,0,.56-.39Z" fill="#fff"/><path d="M26.87,13.17c1.75,0,2.65,1.37,2,3.21a4.68,4.68,0,0,1-4.18,3.07c-1.69,0-2.65-1.36-2.05-3.16A4.77,4.77,0,0,1,26.87,13.17Zm-1.54,5.22c.8,0,1.19-.89,1.4-1.53.27-.81.59-2.64-.45-2.64-.73,0-1.16.82-1.36,1.4C24.65,16.44,24.27,18.39,25.33,18.39Z" fill="#fff"/><path d="M28.77,19a.53.53,0,0,0,.56-.39l1.49-4.5c.11-.35-.11-.39-.31-.39l.12-.35c.41,0,.88,0,1.35,0s1,0,1.43,0l-.12.35a.52.52,0,0,0-.56.39l-.51,1.55h1.49l.52-1.55c.11-.35-.09-.39-.3-.39l.11-.35c.43,0,.86,0,1.39,0s1,0,1.39,0l-.11.35a.53.53,0,0,0-.57.39l-1.48,4.5c-.12.35.11.39.3.39l-.12.35c-.41,0-.88-.06-1.35-.06s-1,0-1.43.06l.12-.35a.52.52,0,0,0,.56-.39l.61-1.84h-1.5l-.61,1.84c-.11.35.1.39.31.39l-.12.35c-.43,0-.86-.06-1.39-.06s-1,0-1.39.06Z" fill="#fff"/><path d="M35.63,19c.29,0,.41-.12.84-.79l2.34-3.58a3.36,3.36,0,0,0,.35-.66c.05-.15-.06-.25-.3-.25l.12-.35c.44,0,1,0,1.47,0s1,0,1.45,0l0,4.9c0,.48,0,.73.32.73l-.12.35c-.46,0-.94-.06-1.5-.06s-.95,0-1.41.06l.11-.35c.15,0,.44-.05.5-.24a3.86,3.86,0,0,0,.1-1.11H37.93a7.24,7.24,0,0,0-.63,1.1c-.07.23.15.25.35.25l-.11.35a10.09,10.09,0,0,0-1-.06c-.32,0-.65,0-1,.06Zm4.27-2.24L40,14.37h0L38.5,16.71Z" fill="#fff"/><path d="M42.66,19c.17,0,.46,0,.64-.55l1.38-3.61c.07-.21.16-.44.23-.65.13-.36,0-.47-.24-.47l.11-.35c.42,0,.82,0,1.24,0s.86,0,1.3,0l0,3.63h0l2.32-3.63c.42,0,.83,0,1.25,0s.81,0,1.22,0l-.11.35c-.21,0-.38,0-.55.51,0,.14-.12.38-.21.75l-.91,3.6c-.11.42.07.42.31.42l-.12.35c-.45,0-.88-.06-1.34-.06s-.93,0-1.42.06l.12-.35a.57.57,0,0,0,.64-.45c.1-.29.18-.65.25-.9l.61-2.36h0L46.7,19.3H45.58l-.14-4.08h0l-.92,2.5c-.09.23-.18.45-.25.68-.18.54,0,.55.3.55l-.12.35c-.31,0-.64-.06-1-.06s-.61,0-.92.06Z" fill="#fff"/><path d="M51.16,19c.29,0,.41-.12.84-.79l2.34-3.58a3.55,3.55,0,0,0,.36-.66c0-.15-.07-.25-.31-.25l.12-.35c.45,0,1,0,1.47,0s1,0,1.45,0l0,4.9c0,.48,0,.73.33.73l-.12.35c-.47,0-1-.06-1.5-.06s-1,0-1.42.06l.12-.35c.15,0,.43-.05.5-.24a3.66,3.66,0,0,0,.09-1.11H53.47a6.43,6.43,0,0,0-.63,1.1c-.08.23.14.25.35.25l-.12.35a9.92,9.92,0,0,0-1-.06c-.31,0-.65,0-1,.06Zm4.27-2.24.09-2.34h0L54,16.71Z" fill="#fff"/><path d="M34,11.59,32.39,8.84l1.42-2.6.1-.18h0A1.93,1.93,0,0,0,34,5.58a1.85,1.85,0,0,0-.38-1.41,1.81,1.81,0,0,0-1.12-.63l-.16,0-.82-.06-1.7-.12h0a2.08,2.08,0,0,0-2,1.78A2.76,2.76,0,0,0,28,6l0,.08h0l1.53,2.6L28,11.48l-.13.24.27-.05,1.46-.27,1.07.33.1,0,.05-.09.24-.43.25.43.06.09.1,0,1.08-.41,1.28.47.35.13Zm-5.8-5.72h0a2.31,2.31,0,0,1-.1-.7,1.79,1.79,0,0,1,1.77-1.55,1.47,1.47,0,0,1,1,.55h0a2,2,0,0,0-.56,1.13,1.53,1.53,0,0,0,0,.69l0,.09h0l.27.46-1,1.85Zm2.85-1.48a1.63,1.63,0,0,1,.17,1,1.78,1.78,0,0,1-.16.51l0,0-.18.34-.23-.39h0a1.81,1.81,0,0,1,0-.53A1.76,1.76,0,0,1,31.07,4.39Zm-.4,7.06-1-.32h-.06l-1.22.23,2.85-5.23h0l0-.08a1.84,1.84,0,0,0,.21-.65A1.81,1.81,0,0,0,31.12,4a1.78,1.78,0,0,0-.35-.32l1.57.11a1.52,1.52,0,0,1,1.09.56,1.56,1.56,0,0,1,.33,1.21,1.93,1.93,0,0,1-.18.56l0,.08ZM32.62,11h-.09l-1,.4L31.23,11l1-1.86,1.36,2.3Z" fill="#003686"/><path d="M30.72,6.54l-.27-.46h0l0-.09a1.53,1.53,0,0,1,0-.69,2,2,0,0,1,.56-1.13h0a1.47,1.47,0,0,0-1-.55,1.79,1.79,0,0,0-1.77,1.55,2.31,2.31,0,0,0,.1.7h0l1.49,2.52Z" fill="#00a0e9"/><polygon points="31.23 10.97 31.51 11.44 32.53 11.04 32.58 11.03 32.63 11.04 33.6 11.41 32.25 9.11 31.23 10.97" fill="#00a0e9"/><path d="M33.43,4.34a1.52,1.52,0,0,0-1.09-.56l-1.57-.11a1.78,1.78,0,0,1,.35.32A1.81,1.81,0,0,1,31.5,5.4a1.84,1.84,0,0,1-.21.65l0,.08h0l-2.85,5.23,1.22-.23h.06l1,.32,2.87-5.26,0-.08a1.93,1.93,0,0,0,.18-.56A1.56,1.56,0,0,0,33.43,4.34Zm-2.55,5a.43.43,0,1,1,0-.86.43.43,0,0,1,0,.86Z" fill="#00a0e9"/><path d="M30.88,9.37a.43.43,0,0,0,0-.86.43.43,0,1,0,0,.86Z" fill="#fff"/><path d="M31,38.45a9.24,9.24,0,1,0-6.52-2.7A9.17,9.17,0,0,0,31,38.45Z" fill="#003686"/><path d="M22.79,29.23A8.19,8.19,0,1,1,25.19,35,8.1,8.1,0,0,1,22.79,29.23Z" fill="#f0831e"/><path d="M29,26.88l-.25.85H30.9l-.43,1.44H28.34l-.71,2.4H24.91l1.27-4.45h1.43l.09-.39H26.32a1.32,1.32,0,0,1-1-.54,2.25,2.25,0,0,1-.37-.8h6.57v1.49Z" fill="#003686"/><path d="M35.81,29.08a2.76,2.76,0,0,1,1.53.33V27.82a5,5,0,0,0-1.87-.22,7.49,7.49,0,0,0-1,.08h-3.3a2.24,2.24,0,0,0,.36.8,1.36,1.36,0,0,0,1.05.55h.48l-.14.42H31.46a3.21,3.21,0,0,0-.46,1,3.47,3.47,0,0,0-.13.93c0,1.58,1.21,2.38,2.73,2.54a5.77,5.77,0,0,0,2.16-.22l1.15-1.67a3.37,3.37,0,0,1-2.24.28,1.19,1.19,0,0,1-1.05-1.2,1.49,1.49,0,0,1,.06-.4A2.18,2.18,0,0,1,35.81,29.08Z" fill="#003686"/><path d="M90.92,21.45c2.13.14,4.81.28,7.54.28,2.54,0,4.86-.14,7-.28l-.6,1.81c-1.09,0-1.64.29-1.89,1a11.94,11.94,0,0,0-.17,3.41l.26,8.27h.09l5.43-7.89a14.82,14.82,0,0,0,2-3.4c.38-1.15-.12-1.44-1.08-1.44l.61-1.81c1.49.14,3.08.28,4.9.28,1.64,0,3.32-.14,4.73-.28l-.62,1.86c-.71,0-1.5.14-2.81,1.92l-12.87,17.6-1.85,5.59c-.58,1.78.4,2.11,1.58,2.11l-.6,1.82c-2.18-.15-4.54-.29-7.36-.29-2.64,0-4.91.14-7.19.29l.61-1.82a2.89,2.89,0,0,0,3-2.11L93.48,43,92.15,25.56c-.14-2.06-.38-2.3-1.84-2.3Z" fill="#003686"/><path d="M133.73,23.92c8.11,0,12.28,6.35,9.46,14.89S131.45,53,123.83,53c-7.82,0-12.27-6.26-9.5-14.63S126.11,23.92,133.73,23.92Zm-7.14,24.2c3.7,0,5.51-4.12,6.51-7.13,1.23-3.73,2.72-12.17-2.13-12.17-3.34,0-5.36,3.76-6.25,6.47C123.47,39.06,121.7,48.12,126.59,48.12Z" fill="#003686"/><path d="M152,28c.54-1.63-.51-1.8-1.4-1.8l.54-1.63c1.91.13,4.07.26,6.27.26,2.44,0,4.51-.09,6.6-.26l-.54,1.63a2.36,2.36,0,0,0-2.59,1.8L157.4,38.59h.08c8.33-8.79,9.82-10.21,10.11-11.11s-.32-1.24-1.05-1.24l.54-1.63c1.83.13,3.62.26,5.49.26,1.63,0,3.26-.13,4.86-.26l-.54,1.63c-.9,0-1.75.47-2.9,1.63l-7.94,8c.78,4,1.35,8.1,1.8,12.31.19,1.88.62,2.53,2.21,2.53l-.53,1.63c-1.55-.13-3.18-.26-4.81-.26-1.91,0-3.91.13-5.91.26a87.75,87.75,0,0,0-1.41-13.47h-.08l-3.32,10c-.54,1.62.42,1.8,1.4,1.8l-.54,1.63c-2-.13-4-.26-6.43-.26-2.2,0-4.45.13-6.44.26l.53-1.63a2.42,2.42,0,0,0,2.6-1.8Z" fill="#003686"/><path d="M193.79,23.92c8.11,0,12.28,6.35,9.46,14.89S191.51,53,183.89,53c-7.82,0-12.27-6.26-9.5-14.63S186.18,23.92,193.79,23.92Zm-7.14,24.2c3.71,0,5.52-4.12,6.51-7.13,1.23-3.73,2.72-12.17-2.12-12.17-3.34,0-5.37,3.76-6.26,6.47C183.53,39.06,181.76,48.12,186.65,48.12Z" fill="#003686"/><path d="M202.59,50.69a2.42,2.42,0,0,0,2.59-1.8L212.07,28c.54-1.63-.5-1.8-1.4-1.8l.54-1.63c1.91.13,4.07.26,6.27.26,2.45,0,4.53-.13,6.6-.26l-.53,1.63A2.37,2.37,0,0,0,221,28l-2.38,7.21h6.93L227.88,28c.54-1.63-.42-1.8-1.4-1.8l.54-1.63c2,.13,4,.26,6.43.26,2.2,0,4.44-.13,6.44-.26l-.54,1.63a2.41,2.41,0,0,0-2.59,1.8l-6.89,20.85c-.54,1.62.5,1.8,1.4,1.8l-.54,1.63c-1.91-.13-4.07-.26-6.27-.26-2.45,0-4.52.13-6.6.26l.54-1.63a2.37,2.37,0,0,0,2.59-1.8l2.81-8.49h-6.93l-2.81,8.49c-.54,1.62.42,1.8,1.4,1.8l-.54,1.63c-2-.13-4-.26-6.43-.26-2.2,0-4.44.13-6.44.26Z" fill="#003686"/><path d="M234.37,50.69c1.34,0,1.89-.56,3.89-3.65l10.83-16.6a17.34,17.34,0,0,0,1.66-3c.22-.69-.31-1.16-1.41-1.16l.54-1.63c2.07.13,4.52.26,6.8.26s4.48-.13,6.72-.26l-.21,22.69c0,2.23,0,3.39,1.49,3.39l-.54,1.63c-2.16-.13-4.39-.26-7-.26-2.28,0-4.4.13-6.57.26l.54-1.63c.69,0,2-.22,2.33-1.12s.36-1.59.44-5.14H245a33.13,33.13,0,0,0-2.9,5.1c-.36,1.07.67,1.16,1.61,1.16l-.54,1.63c-1.46-.13-2.85-.26-4.8-.26-1.47,0-3,.13-4.57.26Zm19.77-10.38.39-10.81h-.07l-6.8,10.81Z" fill="#003686"/><path d="M266.93,50.69c.81,0,2.12,0,3-2.53l6.35-16.73c.37-1,.79-2,1.12-3,.55-1.68-.26-2.19-1.16-2.19l.54-1.63c1.92.13,3.79.26,5.75.26,2.11,0,4-.13,6-.26l.1,16.81h.08l10.78-16.81c1.95.13,3.82.26,5.78.26s3.75-.13,5.66-.26l-.54,1.63c-.93,0-1.76,0-2.53,2.36-.21.64-.54,1.75-1,3.47l-4.22,16.69c-.51,1.93.34,1.93,1.44,1.93l-.53,1.63c-2.08-.13-4.12-.26-6.24-.26s-4.32.13-6.56.26l.54-1.63a2.65,2.65,0,0,0,3-2.06c.46-1.37.83-3,1.15-4.2l2.83-10.9h-.08L285.66,52.32h-5.22l-.64-18.88h-.08L275.46,45c-.4,1.08-.82,2.1-1.18,3.18-.82,2.48.19,2.53,1.4,2.53l-.53,1.63c-1.47-.13-3-.26-4.48-.26s-2.85.13-4.28.26Z" fill="#003686"/><path d="M306.33,50.69c1.35,0,1.89-.56,3.89-3.65l10.83-16.6a17.34,17.34,0,0,0,1.66-3c.23-.69-.31-1.16-1.41-1.16l.54-1.63c2.08.13,4.52.26,6.8.26s4.48-.13,6.72-.26l-.21,22.69c0,2.23,0,3.39,1.49,3.39l-.54,1.63c-2.16-.13-4.4-.26-7-.26-2.28,0-4.4.13-6.56.26l.53-1.63c.7,0,2-.22,2.33-1.12s.36-1.59.44-5.14H317a31.76,31.76,0,0,0-2.91,5.1c-.36,1.07.67,1.16,1.61,1.16l-.54,1.63c-1.46-.13-2.85-.26-4.8-.26-1.47,0-3,.13-4.57.26ZM326.1,40.31l.4-10.81h-.08l-6.8,10.81Z" fill="#003686"/><path d="M354.44,50.53a2.68,2.68,0,0,0,2.89-2l7.59-23c.6-1.81-.56-2-1.56-2l.6-1.82h24.73a67.58,67.58,0,0,0-2.34,8.85h-1.73c.2-1,.36-3.68-3.55-3.68h-6.68l-2.53,7.66h3.72c2.5,0,3.35-1.34,4-3.41h1.73c-.75,1.87-1.59,4-2.28,6.08s-1.16,3.93-1.71,6h-1.72c1-2.92.1-3.49-2.12-3.49h-3.36l-2.79,8.42c-.73,2.2,1,2.39,2,2.39l-.6,1.82c-2.59-.15-5.18-.29-7.82-.29-2.31,0-4.72.14-7.14.29Z" fill="#003686"/><path d="M409,50.24a19,19,0,0,1-9.27,2.87c-9.81,0-14.33-6-10.85-16.5A23.13,23.13,0,0,1,411,20.68a12.24,12.24,0,0,1,6.22,1.53c-1,3.25-1.85,6.56-2.69,9.81h-1.74c.33-3.16-.56-6-4-6-4.59,0-7.92,4.44-9.28,8.56-1.77,5.36-1.58,11.91,4.33,11.91a18.22,18.22,0,0,0,7.5-2.2Z" fill="#003686"/></svg>