<svg xmlns="http://www.w3.org/2000/svg" width="25rem" height="5.5rem" viewBox="0 0 239.78 42.83"><path d="M25.57,16.47C25,14.21,23.74,10,17.26,10,13.5,10,8,12.48,8,23.14,8,29.91,10.62,36,17.26,36c4.34,0,7.37-2.47,8.31-7.09h7.9c-1.57,8.19-6.9,13.91-16.32,13.91C7.15,42.83,0,36.06,0,23S7.59,3.13,17.26,3.13C28.47,3.13,33,10.9,33.47,16.47Z" fill="#0b318f"/><path d="M38.75,13.9h7v4.81h.1c1.52-2.84,3.19-5.57,7.63-5.57a11.17,11.17,0,0,1,1.42.11v7.46a14.77,14.77,0,0,0-2.1-.1c-5.69,0-6.74,3.57-6.74,6.67V41.83H38.75Z" fill="#0b318f"/><path d="M64.47,25.08c.42-3.67,2.25-5.88,5.7-5.88,2.36,0,5.23,1.37,5.65,5.88Zm11,8.56a4.71,4.71,0,0,1-4.71,3c-5.91,0-6.33-4.73-6.54-6.83H83.35V28.55c0-12.76-7.58-15.39-13.07-15.39-12.19,0-13.34,10.77-13.34,14.13,0,11.5,6,15.28,13.86,15.28,4.76,0,10.3-2.21,12.23-8.93Z" fill="#0b318f"/><path d="M103.58,31.8c0,3.42-3.29,5.52-6.53,5.52a3.21,3.21,0,0,1-3.4-3,2.29,2.29,0,0,1,0-.37c0-3,2.25-3.73,5-4.2,3-.48,4.23-1,5-1.53Zm7.16-10.55c0-6.88-7.16-8.09-11.08-8.09-5.7,0-11.61,1.21-12.44,9.77h7.06c.21-1.63.83-3.89,4.49-3.89,1.88,0,4.81.16,4.81,3.26,0,1.57-1.41,2.05-2.56,2.2l-6.59,1c-4.65.68-8.1,3.47-8.1,8.93,0,5.78,4.29,8.14,8.47,8.14a11.28,11.28,0,0,0,9-4,12.11,12.11,0,0,0,.68,3.31h7.9V40.71c-.89-.31-1.63-1.05-1.63-4.36Z" fill="#0b318f"/><path d="M125.47,13.9H130v5.25h-4.55V34.32c0,1.63,0,2.26,3,2.26a8,8,0,0,0,1.52-.1V42c-1.15.06-2.3.11-3.45.11h-.94c-6.33,0-7.48-2.42-7.48-6v-17h-3.76V13.9h3.76V6.34h7.35Z" fill="#0b318f"/><path d="M159.79,41.83h-7V37.9h-.1a9.17,9.17,0,0,1-8.47,4.67c-5.49,0-9.47-3.15-9.47-10.29V13.9h7.32V31.23c0,4.3,2.51,5.14,4.76,5.14,2.41,0,5.65-1.36,5.65-6.35V13.9h7.32Z" fill="#0b318f"/><path d="M166.59,13.9h7v4.81h.11c1.51-2.84,3.19-5.57,7.63-5.57a11.16,11.16,0,0,1,1.41.11v7.46a14.56,14.56,0,0,0-2.09-.1c-5.7,0-6.74,3.57-6.74,6.67V41.83h-7.32Z" fill="#0b318f"/><path d="M192.31,25.08c.42-3.67,2.25-5.88,5.7-5.88,2.35,0,5.23,1.37,5.64,5.88Zm11,8.56a4.7,4.7,0,0,1-4.7,3c-5.91,0-6.33-4.73-6.54-6.83h19.08V28.55c0-12.76-7.58-15.39-13.06-15.39-12.19,0-13.34,10.77-13.34,14.13,0,11.5,6,15.28,13.86,15.28,4.75,0,10.3-2.21,12.23-8.93Z" fill="#0b318f"/><path d="M231.78,22.4c-.31-1.78-.94-3.69-4.91-3.69s-4.5,1.52-4.5,2.73c0,4.41,17.41,1.21,17.41,11.5,0,8.14-7.84,9.61-12.18,9.61-6.33,0-13.17-2.21-13.38-9.66h7.53c0,2.36,1.46,4.09,6.06,4.09,3.76,0,4.66-1.84,4.66-2.89,0-4.67-17.26-1.15-17.26-11.6,0-4.1,2.56-9.35,11.24-9.35,5.44,0,11.92,1.37,12.5,9.24Z" fill="#0b318f"/><path d="M225.4,9h-2.09V1.6h-3V0h8.16V1.6h-3Z" fill="#0b318f"/><path d="M239.27,9h-2V1.48h0L235.47,9h-2.05l-1.83-7.54h0V9h-2V0h3l1.83,7.09h0L236.26,0h3Z" fill="#0b318f"/></svg>