<svg xmlns="http://www.w3.org/2000/svg" width="272.17" height="190.49" viewBox="0 0 272.17 190.49"><path d="M113.26,20.75a47.8,47.8,0,0,1,76.51,10.11,58.26,58.26,0,0,1,23.73-5.05c32.4,0,58.67,26.5,58.67,59.19s-26.27,59.19-58.67,59.19A57,57,0,0,1,201.93,143a42.88,42.88,0,0,1-56.2,17.65,48.94,48.94,0,0,1-91-2.21,44.35,44.35,0,0,1-9.33,1c-25.06,0-45.4-20.55-45.4-45.9A46,46,0,0,1,22.71,73.76a52.86,52.86,0,0,1,90.55-53Z" fill="#1797c0"/><path d="M39.42,98.76c-.17.45.06.54.12.62a15.22,15.22,0,0,0,1.55.94,16.6,16.6,0,0,0,8.14,1.9c5.58,0,9.05-3,9.05-7.75v-.1c0-4.42-3.92-6-7.58-7.18L50.22,87c-2.77-.89-5.16-1.67-5.16-3.49v-.1c0-1.56,1.4-2.71,3.56-2.71a16.08,16.08,0,0,1,7.09,1.82s.54.35.74-.17l1.14-3.06a.53.53,0,0,0-.27-.63,15.94,15.94,0,0,0-8-2.15h-.56c-5.11,0-8.68,3.09-8.68,7.51v.09c0,4.66,3.94,6.18,7.63,7.23l.59.18c2.68.83,5,1.54,5,3.43v.09c0,1.73-1.51,3-3.93,3A13.17,13.17,0,0,1,42.18,96c-.4-.23-.62-.39-.92-.58a.47.47,0,0,0-.64,0,.58.58,0,0,0-.1.21Z" fill="#fff"/><path d="M121.15,98.76c-.17.45.06.54.12.62a15.22,15.22,0,0,0,1.55.94,16.6,16.6,0,0,0,8.14,1.9c5.58,0,9-3,9-7.75v-.1c0-4.42-3.91-6-7.58-7.18L131.9,87c-2.77-.89-5.16-1.67-5.16-3.49v-.1c0-1.56,1.4-2.71,3.56-2.71a16.08,16.08,0,0,1,7.09,1.82s.55.35.74-.17l1.14-3.06a.53.53,0,0,0-.27-.63,15.94,15.94,0,0,0-8-2.15h-.56c-5.11,0-8.68,3.09-8.68,7.51v.09c0,4.66,3.94,6.18,7.63,7.23l.59.18c2.68.83,5,1.54,5,3.43v.09c0,1.73-1.51,3-3.93,3A13.17,13.17,0,0,1,123.86,96c-.4-.23-.63-.39-.92-.58a.49.49,0,0,0-.67.11.91.91,0,0,0-.07.14Z" fill="#fff"/><path d="M181.61,84.39a11.35,11.35,0,0,0-2.12-4,10.52,10.52,0,0,0-3.58-2.72,13,13,0,0,0-10,0,10.15,10.15,0,0,0-3.57,2.72,11.37,11.37,0,0,0-2.13,4,18.86,18.86,0,0,0,0,10,11,11,0,0,0,2.13,4,9.9,9.9,0,0,0,3.58,2.7,13.12,13.12,0,0,0,10,0,10.14,10.14,0,0,0,3.59-2.7,11.18,11.18,0,0,0,2.12-4,18.86,18.86,0,0,0,0-10m-4.67,5a11.49,11.49,0,0,1-1.49,6.34A5,5,0,0,1,170.91,98a4.93,4.93,0,0,1-4.51-2.21,11.57,11.57,0,0,1-1.48-6.34,11.59,11.59,0,0,1,1.47-6.31,5.8,5.8,0,0,1,9.06,0,11.29,11.29,0,0,1,1.49,6.3" fill="#fff"/><path d="M219.87,97.22a.44.44,0,0,0-.55-.29h0a10.33,10.33,0,0,1-2.17.62,15.55,15.55,0,0,1-2.55.18,7.09,7.09,0,0,1-5.33-2c-1.29-1.33-2-3.48-2-6.38A9.77,9.77,0,0,1,209,83.24,6.11,6.11,0,0,1,214.19,81a15.47,15.47,0,0,1,4.92.71s.37.16.54-.32c.41-1.14.71-1.94,1.15-3.19a.43.43,0,0,0-.27-.54h0a18.38,18.38,0,0,0-3.11-.78,22.79,22.79,0,0,0-3.5-.24,12.83,12.83,0,0,0-5.19,1A11,11,0,0,0,205,80.31a11.37,11.37,0,0,0-2.27,4,16.05,16.05,0,0,0-.76,5c0,3.86,1,7,3.1,9.27s5.16,3.46,9.2,3.46a18.82,18.82,0,0,0,6.6-1.17.42.42,0,0,0,.19-.56Z" fill="#fff" fill-rule="evenodd"/><path d="M243.72,83.51a9.91,9.91,0,0,0-2-3.69,9.23,9.23,0,0,0-3-2.29,11.65,11.65,0,0,0-4.51-.91,12.57,12.57,0,0,0-5.21,1,10.29,10.29,0,0,0-3.63,2.77,11.51,11.51,0,0,0-2.14,4.1,17.65,17.65,0,0,0-.69,5,17.22,17.22,0,0,0,.71,5,10.45,10.45,0,0,0,2.29,4,10.17,10.17,0,0,0,4,2.62,15.47,15.47,0,0,0,5.72.93c4.56,0,7-1,8-1.58.17-.09.34-.26.13-.75l-1-2.89a.46.46,0,0,0-.59-.27h0a15.1,15.1,0,0,1-6.47,1.16,7.43,7.43,0,0,1-5.4-1.85c-1.16-1.16-1.74-2.85-1.83-5.25h15.77a.45.45,0,0,0,.46-.41A17.2,17.2,0,0,0,243.72,83.51ZM228,86.81a9.2,9.2,0,0,1,1.27-3.73,5,5,0,0,1,4.51-2.28,4.89,4.89,0,0,1,4.42,2.29,7.79,7.79,0,0,1,1.05,3.72Z" fill="#fff" fill-rule="evenodd"/><path d="M117.38,83.51a9.91,9.91,0,0,0-2-3.69,9.23,9.23,0,0,0-3-2.29,11.7,11.7,0,0,0-4.52-.91,12.57,12.57,0,0,0-5.21,1A10.27,10.27,0,0,0,99,80.4a11.51,11.51,0,0,0-2.14,4.1,17.65,17.65,0,0,0-.69,5,17.22,17.22,0,0,0,.71,5,10.45,10.45,0,0,0,2.29,4,10.28,10.28,0,0,0,4,2.62,15.47,15.47,0,0,0,5.72.93c4.56,0,7-1,8-1.58.17-.09.34-.26.13-.75l-1-2.89a.45.45,0,0,0-.57-.27h0a15.15,15.15,0,0,1-6.48,1.16,7.43,7.43,0,0,1-5.4-1.85c-1.16-1.16-1.74-2.85-1.83-5.25h15.77a.45.45,0,0,0,.46-.41A16.86,16.86,0,0,0,117.38,83.51Zm-15.69,3.3A9.26,9.26,0,0,1,103,83.08a5,5,0,0,1,4.51-2.28,4.92,4.92,0,0,1,4.43,2.29,7.84,7.84,0,0,1,1,3.72Z" fill="#fff" fill-rule="evenodd"/><path d="M73.87,86.05c-.64,0-1.47-.07-2.46-.07a15.49,15.49,0,0,0-3.89.5A10.2,10.2,0,0,0,64.23,88a7.4,7.4,0,0,0-3.14,6.23,8.26,8.26,0,0,0,.73,3.6,6.42,6.42,0,0,0,2,2.47,8.66,8.66,0,0,0,3.22,1.4,18.36,18.36,0,0,0,4.18.42,27.41,27.41,0,0,0,4.79-.4c1.55-.26,3.44-.65,4-.77s1.11-.28,1.11-.28a.49.49,0,0,0,.36-.52V85.74c0-3.17-.85-5.51-2.51-7s-4.09-2.18-7.24-2.18A27.27,27.27,0,0,0,67.5,77s-3.45.67-4.86,1.78a.49.49,0,0,0-.15.63l1.12,3a.4.4,0,0,0,.5.26h0a.91.91,0,0,0,.26-.13,16.17,16.17,0,0,1,6.87-1.6,6.47,6.47,0,0,1,3.9,1c.86.66,1.3,1.66,1.3,3.76v.67C75.12,86.16,73.87,86.05,73.87,86.05ZM67.59,97.14a3.14,3.14,0,0,1-.91-.94,3.77,3.77,0,0,1-.47-2,3.44,3.44,0,0,1,1.41-3S69,89.91,72.19,90a30.76,30.76,0,0,1,4.28.36V97.5h0a30.83,30.83,0,0,1-4.27.57C69,98.25,67.58,97.13,67.59,97.14Z" fill="#fff"/><path d="M201.1,78a.44.44,0,0,0-.23-.57,14,14,0,0,0-2.65-.44,7.86,7.86,0,0,0-4.06.65,7.12,7.12,0,0,0-2.67,2v-2a.46.46,0,0,0-.43-.47h-4a.45.45,0,0,0-.45.45v23.56a.47.47,0,0,0,.47.47h4.15a.47.47,0,0,0,.48-.46h0V89.38a14.17,14.17,0,0,1,.52-4.14A6,6,0,0,1,193.54,83a5,5,0,0,1,2-1.17,7.59,7.59,0,0,1,2.12-.3,10.09,10.09,0,0,1,1.73.21.52.52,0,0,0,.58-.43C200.19,80.51,201,78.35,201.1,78Z" fill="#fff" fill-rule="evenodd"/><path d="M162.2,67a13.61,13.61,0,0,0-1.56-.37,12.78,12.78,0,0,0-2.14-.17,9,9,0,0,0-6.68,2.4A13,13,0,0,0,148.65,76l-.2,1.07h-3.58a.56.56,0,0,0-.53.46l-.58,3.28c0,.32.09.51.51.51h3.49l-3.54,19.74a24.8,24.8,0,0,1-.95,3.89,7.42,7.42,0,0,1-1.1,2.24,2.85,2.85,0,0,1-1.44,1.12,5.86,5.86,0,0,1-1.86.27,6.75,6.75,0,0,1-1.26-.14,3.68,3.68,0,0,1-.85-.28.45.45,0,0,0-.57.26h0c-.13.33-1.06,2.89-1.17,3.2a.47.47,0,0,0,.23.63h0a9.12,9.12,0,0,0,1.44.42,8.93,8.93,0,0,0,2.3.27,11.07,11.07,0,0,0,3.87-.6,7.18,7.18,0,0,0,2.92-2,10.39,10.39,0,0,0,2-3.53,30.17,30.17,0,0,0,1.39-5.3l3.55-20.11H158a.52.52,0,0,0,.53-.46l.58-3.28c0-.31-.09-.51-.51-.51h-5a21.8,21.8,0,0,1,.84-3.55,4.71,4.71,0,0,1,1.1-1.69,3.42,3.42,0,0,1,1.32-.82,6.07,6.07,0,0,1,1.7-.24,6.21,6.21,0,0,1,1.29.13c.49.1.68.16.81.19.51.16.58,0,.68-.24l1.21-3.31a.41.41,0,0,0-.15-.57A.39.39,0,0,0,162.2,67Z" fill="#fff" fill-rule="evenodd"/><path d="M91.73,101.14a.45.45,0,0,1-.43.47H87.09a.45.45,0,0,1-.45-.45V67.47a.47.47,0,0,1,.44-.48h4.2a.47.47,0,0,1,.45.47h0Z" fill="#fff" fill-rule="evenodd"/></svg>