<svg xmlns="http://www.w3.org/2000/svg" width="380" height="95.67" viewBox="0 0 380 95.67"><path d="M244.06,62.57c-.94.22-4.4,1.41-5.41,1.7-.11,3.19-.62,17.44-.62,17.44-.28,6.64-3.17,11-10.79,14L224.48,95c3.72-2.21,5.36-4.15,5.83-5.77.76-2.09,1.14-6.94,1.14-15.88,0,0-.08-6.75-.25-9-1.14-.19-5.83-1.33-7.28-1.66l-.07-2.12c3,.09,9.51.19,12.08.19s5.7-.13,8.32-.19Z" fill="#ff0031"/><path d="M365.83,66.9c-.56.13-2.15.5-3.56.8-.09,2.3.17,19.23.2,23.28,0,.58-.65.88-1.17.35-3.67-3.58-15.34-16.81-19.23-21.6,0,3,.15,15,.18,17.28,1.46.4,4.85,1.21,5.48,1.34l.14,2.41c-2.95,0-12.7,0-12.88,0l0-2.34c1.27-.53,2.46-1,3.6-1.41.15-1.41.13-18.09.14-19.16-1-.09-2.89-.14-4.21-.21v-2.9c1.6,0,6.54,0,9.25,0,3.37,3.84,11.45,12.84,15.54,17.42,0-3.87-.22-12.92-.28-14.48-.7-.13-2.28-.28-4-.65l-.23-2.27c.69.06,5.09.13,5.91.13s4.49-.22,5.25-.28Z" fill="#ff0031"/><path d="M296.61,73.68c0,3.21-3,4.54-6.25,5.07V81c6.87-.69,11.26-3.42,11.26-7.44v-.2c0-4.68-3.11-8.74-10.44-8.88,0,0-2.64-.11-4.16-.11h-9.88l.43,2.57c1.37.16,3.2.31,4.35.39.11,3.21.43,16.46.21,20.23-.78.17-3.37.69-4.36.94l-.25,2.25c1-.06,15.14-.06,16.19,0l-.13-1.94c-1-.27-4.64-.93-5.57-1.15-.12-.89-.38-19.65-.32-20.46a28.81,28.81,0,0,1,5.33.38c2.8.74,3.59,3.77,3.59,5.66" fill="#ff0031"/><path d="M105.62,13.57C103.75,13.75,96,15.48,93.4,16c-2.79.75-29.55,21.68-31.22,26.52-.37,1.67,0,19.67,0,19.67l15.12,1-.53,5c-2.18-.15-16.21-.13-25-.13-4.46,0-18.08.5-22.67.37l.57-4.76a34.59,34.59,0,0,0,9.93-.92c2.68-.72,4.6-1.78,4.6-4.47V42.71C43.26,39.92,21,11.9,15.24,7.44,13.57,6.88,2.6,5.68,0,5.13L.54.44H51.33l-.74,4.31c-2.22.56-13,.77-15.76,1.51,7.25,10.79,18.72,24.67,22.44,30.07,2-3,21.5-16.6,22.06-20.87-2.79-.56-12-1.89-13.51-1.89l-.88-4.78h43.85Z" fill="#ff0031"/><path d="M213.79,54.28c-8-.48-22-.28-30.32,0L184,50c1.24-.12,7.78-1.16,9.44-1.4V34.16c-4,0-26.23.48-29.75,1.38v13s9.59,1.11,11.83,1.34l-.51,4.4c-8.73-.49-26.1-.51-34.36,0l.54-4.72c2.59-.07,9.52-.86,11.14-1.11.25-3.23.37-8.34.37-13.68V28.16c0-2.24-.12-8.71-.25-10.95-1.9,0-9.85-.75-12.09-.87l.54-4.18c7.18.41,29.32.4,35.42,0l-.63,3.89c-1.73.09-9.59,1.26-12,1.26V28.88H193.4V12c-2.19-.23-7.55-1.42-9.92-1.54L184,6.59c5,.36,24.63.3,29.9,0l-.37,4.07c-1.61.13-7.39,1.11-9.28,1.24V48.77s8.4,1,10.14,1.27Z" fill="#ff0031"/><path d="M369.85,42h-8V0H380l-1.63,6.31Zm-6,16.64-5.49.22,1.06-9.28,5.47.27,5.11-.2-1.08,9.09Z" fill="#ff0031"/><path d="M279.72,33.35C279.72,20,267,12,247.53,11.55h-1.88c-20.61.43-32,8.56-32,21.87v.4c.13,12.53,12.59,21.46,32,21.86h1.88c19.43-.4,32-8.8,32.19-21.81v-.52M248.57,49.81c-.67,0-1.33.06-2,.09s-1.3-.07-2-.09c-6.73-.19-19.71-4-19.71-15.61,0-.18,0-.56,0-.58s0-.41,0-.58c0-11.59,13-15.43,19.71-15.61.67,0,1.32-.06,2-.09s1.31.07,2,.09c6.73.18,19.71,4,19.71,15.61V34.2c0,11.59-13,15.42-19.71,15.61" fill="#ff0031"/><path d="M355.54,28.07c0-.08,0-.24,0-.24C355,13.9,341.62,4.9,320,4.44l-.88,0-.88,0c-21.62.46-35.1,8.84-35.53,23.39v.46c.43,14.55,13.91,23.14,35.53,23.59,0,0,.58,0,.88,0s.88,0,.88,0c21.61-.45,35.1-9,35.52-23.59,0,0,0-.14,0-.22M322.09,45.53c-1,.07-2,.1-3,.11s-2,0-3-.11c-7.35-.5-20.67-5-20.95-17.47.28-12.46,13.6-16.77,20.95-17.27,1-.06,2-.1,3-.11s2,.05,3,.11c7.35.5,20.67,4.81,20.94,17.27-.27,12.46-13.59,17-20.94,17.47" fill="#ff0031"/><path d="M137.94,60.27c-2.25-3.7-10.75-24.63-14.55-34.11l7-1.08.84-3.58H120.59v0c-4,.06-20.46-.09-22.26-.19L98,25.06l8.43,2S94.13,51.47,91.67,55c-2.19.48-7.55,1.76-9.56,2l-.58,4.5c1.66-.23,23.2-.11,25.19,0l.46-4.06-7.5-1.78s3.4-7.09,3.87-7.91c2.47-.47,16.46-.68,16.46-.68l5,13.53s-5.94.92-8.28,1l-.53,4.45c1.76,0,30.2-.12,31,0l.48-4c-2.11-.12-7.76-1.46-9.75-1.81m-32.55-17.6c.7-1.88,7-15.31,7-15.31l5.94,15.31Z" fill="#ff0031"/><path d="M311.85,78.81c.56-1.38,4.19-9.88,4.19-9.88l3.84,9.91Zm16.93,8.91C326,81.85,321.25,70.34,320,67.23l3.36-.45.23-2.25L309.69,65l-.05,1.88,3.6.63c-2.38,5.2-8.51,18.48-9.58,20-.92.33-2.07.68-3.18,1.09l-.23,2.11c3.19-.18,10.07-.06,11.15,0l.05-1.89-3.45-1s2.15-5.2,2.93-6.77c2.68,0,9.75,0,9.75,0l2.64,6.9s-2.45.52-4.28.86l-.31,1.85c.95,0,13.53-.06,14,0l.25-2.18c-1.16-.25-4.17-.86-4.17-.86" fill="#ff0031"/><path d="M253.65,78.81c.56-1.38,4.19-9.88,4.19-9.88l3.84,9.91Zm16.93,8.91c-1.76-3.66-6.55-15.13-8.73-20.5l3.64-.65.1-2-14.1.48,0,1.87,3.61.62c-2.38,5.2-8.54,18.5-9.61,20.06-1.16.43-2.19.75-3.19,1.09l-.22,2.11c3.15-.11,10.07-.06,11.15,0l.05-1.89-3.45-1s2.15-5.2,2.93-6.77c2.68,0,9.75,0,9.75,0l2.64,6.9s-2.45.52-4.28.86l-.31,1.85c1,0,13.53-.06,14,0l.25-2.18c-1.16-.25-4.17-.86-4.17-.86" fill="#ff0031"/></svg>