<svg fill="none" version="1.1" viewBox="0 0 1024 3257" xmlns="http://www.w3.org/2000/svg"><g clip-path="url(#clip0)"><path d="M0 0h1024v3257H0z" fill="#fff"/><path d="m-13.445 2458c129.79 0 235-105.21 235-235s-105.21-235-235-235-235 105.21-235 235 105.21 235 235 235z" clip-rule="evenodd" fill="#88e7d9" fill-rule="evenodd"/><path d="m1069.7 2252 64.866 96.168-305.08 205.78-64.867-96.168zm-856-1716 64.866 96.168-305.08 205.78-64.867-96.168z" fill="#D8D8D8"/><g fill="#f77ecd"><path d="m1096.6 1552c-1.66-0.03-3.33-0.04-5-0.04-180.59 0-327 146.85-327 328s146.4 328 327 328c1.67 0 3.34-0.01 5-0.04v-208.79c-1.65 0.07-3.32 0.1-5 0.1-65.67 0-118.9-53.4-118.9-119.27s53.235-119.27 118.9-119.27c1.68 0 3.35 0.03 5 0.1v-208.79z" clip-rule="evenodd" fill-rule="evenodd"/><path d="M1096.55 1552.04h2.5v-2.47l-2.46-.03-.04 2.5zm0 655.92l.04 2.5 2.46-.03v-2.47h-2.5zm0-208.79h2.5v-2.61l-2.6.11.1 2.5zm0-238.34l-.1 2.5 2.6.11v-2.61h-2.5zm-5-206.33c1.66 0 3.31.01 4.97.04l.07-5c-1.68-.03-3.35-.04-5.04-.04v5zM767.055 1880c0-179.78 145.29-325.5 324.495-325.5v-5c-181.981 0-329.495 147.98-329.495 330.5h5zm324.495 325.5c-179.205 0-324.495-145.72-324.495-325.5h-5c0 182.52 147.514 330.5 329.495 330.5v-5zm4.97-.04c-1.66.03-3.31.04-4.97.04v5c1.69 0 3.36-.01 5.04-.04l-.07-5zm2.53 2.5v-208.79h-5v208.79h5zm-7.5-206.19c1.71 0 3.41-.03 5.11-.1l-.21-5c-1.62.07-3.26.1-4.9.1v5zM970.145 1880c0 67.25 54.345 121.77 121.405 121.77v-5c-64.28 0-116.405-52.27-116.405-116.77h-5zm121.405-121.77c-67.06 0-121.405 54.52-121.405 121.77h5c0-64.5 52.125-116.77 116.405-116.77v-5zm5.11.1c-1.7-.07-3.4-.1-5.11-.1v5c1.64 0 3.28.03 4.9.1l.21-5zm2.39 2.5v-208.79h-5v208.79h5z"/><path d="m473.52 355c0.025-1.664 0.038-3.331 0.038-5 0-180.6-146.85-327-328-327-181.15 0-328 146.4-328 327 0 1.669 0.012 3.336 0.037 5h208.79a120.63 120.63 0 0 1-0.103-5c0-65.672 53.4-118.91 119.27-118.91 65.872 0 119.27 53.237 119.27 118.91 0 1.675-0.034 3.341-0.103 5h208.79z" clip-rule="evenodd" fill-rule="evenodd"/><path d="m473.52 355v2.5h2.463l0.037-2.463-2.5-0.037zm-655.92 0-2.499 0.037 0.037 2.463h2.462v-2.5zm208.79 0v2.5h2.606l-0.108-2.604-2.497 0.104zm238.34 0-2.498-0.104-0.108 2.604h2.606v-2.5zm206.33-5c0 1.657-0.013 3.311-0.038 4.962l5 0.075c0.025-1.676 0.038-3.355 0.038-5.037h-5zm-325.5-324.5c179.78 0 325.5 145.29 325.5 324.5h5c0-181.98-147.98-329.5-330.5-329.5v5zm-325.5 324.5c0-179.21 145.72-324.5 325.5-324.5v-5c-182.52 0-330.5 147.51-330.5 329.5h5zm0.037 4.962a327.73 327.73 0 0 1-0.037-4.962h-5c0 1.682 0.012 3.361 0.038 5.037l4.999-0.075zm-2.5 2.538h208.79v-5h-208.79v5zm206.19-7.5c0 1.709 0.035 3.411 0.106 5.103l4.995-0.207a118.23 118.23 0 0 1-0.101-4.896h-5zm121.77-121.41c-67.246 0-121.77 54.349-121.77 121.41h5c0-64.284 52.274-116.41 116.77-116.41v-5zm121.77 121.41c0-67.06-54.526-121.41-121.77-121.41v5c64.499 0 116.77 52.125 116.77 116.41h5zm-0.105 5.103c0.07-1.692 0.105-3.394 0.105-5.103h-5c0 1.64-0.034 3.272-0.101 4.896l4.996 0.207zm-2.498 2.397h208.79v-5h-208.79v5z"/></g><g clip-rule="evenodd" fill-rule="evenodd"><path d="m805.56 709c129.79 0 235-105.21 235-235s-105.21-235-235-235-235 105.21-235 235 105.21 235 235 235z" fill="#88e7d9"/><path d="m93.437 1745.7-278.27-85.08 425.62-396.9 65.457 283.53 65.458 283.52-278.27-85.07z" fill="#bf77f2"/><path d="m61.555 2811c44.735 0 81-36.26 81-81s-36.265-81-81-81-81 36.26-81 81 36.265 81 81 81z" fill="#D8D8D8"/><path d="m914.26 2990.8-209.32 202.13-70.395-282.34-70.396-282.34 559.42 160.41-209.31 202.14z" fill="#bf77f2"/><path d="m971.56 1118c44.735 0 80.995-36.26 80.995-81 0-44.735-36.26-81-80.995-81s-81 36.265-81 81c0 44.74 36.265 81 81 81z" fill="#D8D8D8"/></g></g><defs><clipPath id="clip0"><path d="M0 0h1024v3257H0z" fill="#fff"/></clipPath></defs></svg>
