<?xml version="1.0" standalone="no"?>
<!DOCTYPE svg PUBLIC "-//W3C//DTD SVG 20010904//EN"
 "http://www.w3.org/TR/2001/REC-SVG-20010904/DTD/svg10.dtd">
<svg version="1.0" xmlns="http://www.w3.org/2000/svg"
 width="512.000000pt" height="512.000000pt" viewBox="0 0 512.000000 512.000000"
 preserveAspectRatio="xMidYMid meet">
<metadata>
Created by potrace 1.11, written by Peter Selinger 2001-2013
</metadata>
<g transform="translate(0.000000,512.000000) scale(0.100000,-0.100000)"
fill="#000000" stroke="none">
<path d="M3197 4413 c-1 0 -33 -4 -72 -7 -134 -12 -163 -16 -300 -51 -184 -46
-403 -143 -559 -247 -223 -149 -435 -371 -569 -595 -92 -152 -195 -413 -221
-558 -3 -16 -10 -55 -16 -85 -24 -130 -31 -340 -17 -490 7 -70 9 -86 22 -150
2 -14 6 -36 9 -50 17 -103 72 -268 132 -398 195 -421 541 -755 970 -935 67
-28 271 -92 319 -100 17 -3 41 -8 55 -11 79 -18 269 -33 355 -27 20 1 20 7 20
596 0 327 -2 595 -5 596 -3 1 -27 2 -53 4 -141 10 -233 38 -338 107 -124 79
-215 197 -265 344 -25 70 -28 93 -28 204 0 111 3 134 28 205 91 262 318 435
591 448 l70 4 0 596 c0 525 -2 597 -15 598 -33 2 -112 4 -113 2z"/>
</g>
</svg>
